<?xml version="1.0" standalone="no" ?>
<!DOCTYPE svg PUBLIC "-//W3C//DTD SVG 1.1//EN" "http://www.w3.org/Graphics/SVG/1.1/DTD/svg11.dtd">
<svg version="1.1" width="402px" height="302px" xmlns="http://www.w3.org/2000/svg">
<line x1="21" y1="1" x2="41" y2="1" stroke="#000000" stroke-linecap="round" stroke-width="2"></line>
<line x1="21" y1="201" x2="41" y2="201" stroke="#000000" stroke-linecap="round" stroke-width="2"></line>
<line x1="41" y1="1" x2="61" y2="1" stroke="#000000" stroke-linecap="round" stroke-width="2"></line>
<line x1="41" y1="121" x2="61" y2="121" stroke="#000000" stroke-linecap="round" stroke-width="2"></line>
<line x1="41" y1="281" x2="61" y2="281" stroke="#000000" stroke-linecap="round" stroke-width="2"></line>
<line x1="61" y1="1" x2="81" y2="1" stroke="#000000" stroke-linecap="round" stroke-width="2"></line>
<line x1="61" y1="161" x2="81" y2="161" stroke="#000000" stroke-linecap="round" stroke-width="2"></line>
<line x1="61" y1="201" x2="81" y2="201" stroke="#000000" stroke-linecap="round" stroke-width="2"></line>
<line x1="61" y1="241" x2="81" y2="241" stroke="#000000" stroke-linecap="round" stroke-width="2"></line>
<line x1="81" y1="1" x2="101" y2="1" stroke="#000000" stroke-linecap="round" stroke-width="2"></line>
<line x1="81" y1="161" x2="101" y2="161" stroke="#000000" stroke-linecap="round" stroke-width="2"></line>
<line x1="81" y1="281" x2="101" y2="281" stroke="#000000" stroke-linecap="round" stroke-width="2"></line>
<line x1="101" y1="1" x2="121" y2="1" stroke="#000000" stroke-linecap="round" stroke-width="2"></line>
<line x1="121" y1="1" x2="141" y2="1" stroke="#000000" stroke-linecap="round" stroke-width="2"></line>
<line x1="121" y1="41" x2="141" y2="41" stroke="#000000" stroke-linecap="round" stroke-width="2"></line>
<line x1="121" y1="161" x2="141" y2="161" stroke="#000000" stroke-linecap="round" stroke-width="2"></line>
<line x1="141" y1="1" x2="161" y2="1" stroke="#000000" stroke-linecap="round" stroke-width="2"></line>
<line x1="141" y1="41" x2="161" y2="41" stroke="#000000" stroke-linecap="round" stroke-width="2"></line>
<line x1="141" y1="201" x2="161" y2="201" stroke="#000000" stroke-linecap="round" stroke-width="2"></line>
<line x1="141" y1="281" x2="161" y2="281" stroke="#000000" stroke-linecap="round" stroke-width="2"></line>
<line x1="161" y1="1" x2="181" y2="1" stroke="#000000" stroke-linecap="round" stroke-width="2"></line>
<line x1="161" y1="41" x2="181" y2="41" stroke="#000000" stroke-linecap="round" stroke-width="2"></line>
<line x1="161" y1="81" x2="181" y2="81" stroke="#000000" stroke-linecap="round" stroke-width="2"></line>
<line x1="161" y1="201" x2="181" y2="201" stroke="#000000" stroke-linecap="round" stroke-width="2"></line>
<line x1="161" y1="241" x2="181" y2="241" stroke="#000000" stroke-linecap="round" stroke-width="2"></line>
<line x1="161" y1="281" x2="181" y2="281" stroke="#000000" stroke-linecap="round" stroke-width="2"></line>
<line x1="181" y1="1" x2="201" y2="1" stroke="#000000" stroke-linecap="round" stroke-width="2"></line>
<line x1="181" y1="81" x2="201" y2="81" stroke="#000000" stroke-linecap="round" stroke-width="2"></line>
<line x1="181" y1="201" x2="201" y2="201" stroke="#000000" stroke-linecap="round" stroke-width="2"></line>
<line x1="201" y1="1" x2="221" y2="1" stroke="#000000" stroke-linecap="round" stroke-width="2"></line>
<line x1="201" y1="81" x2="221" y2="81" stroke="#000000" stroke-linecap="round" stroke-width="2"></line>
<line x1="201" y1="241" x2="221" y2="241" stroke="#000000" stroke-linecap="round" stroke-width="2"></line>
<line x1="221" y1="1" x2="241" y2="1" stroke="#000000" stroke-linecap="round" stroke-width="2"></line>
<line x1="221" y1="41" x2="241" y2="41" stroke="#000000" stroke-linecap="round" stroke-width="2"></line>
<line x1="221" y1="81" x2="241" y2="81" stroke="#000000" stroke-linecap="round" stroke-width="2"></line>
<line x1="221" y1="121" x2="241" y2="121" stroke="#000000" stroke-linecap="round" stroke-width="2"></line>
<line x1="221" y1="281" x2="241" y2="281" stroke="#000000" stroke-linecap="round" stroke-width="2"></line>
<line x1="241" y1="1" x2="261" y2="1" stroke="#000000" stroke-linecap="round" stroke-width="2"></line>
<line x1="241" y1="241" x2="261" y2="241" stroke="#000000" stroke-linecap="round" stroke-width="2"></line>
<line x1="261" y1="1" x2="281" y2="1" stroke="#000000" stroke-linecap="round" stroke-width="2"></line>
<line x1="261" y1="41" x2="281" y2="41" stroke="#000000" stroke-linecap="round" stroke-width="2"></line>
<line x1="261" y1="121" x2="281" y2="121" stroke="#000000" stroke-linecap="round" stroke-width="2"></line>
<line x1="261" y1="201" x2="281" y2="201" stroke="#000000" stroke-linecap="round" stroke-width="2"></line>
<line x1="261" y1="241" x2="281" y2="241" stroke="#000000" stroke-linecap="round" stroke-width="2"></line>
<line x1="281" y1="1" x2="301" y2="1" stroke="#000000" stroke-linecap="round" stroke-width="2"></line>
<line x1="281" y1="161" x2="301" y2="161" stroke="#000000" stroke-linecap="round" stroke-width="2"></line>
<line x1="281" y1="281" x2="301" y2="281" stroke="#000000" stroke-linecap="round" stroke-width="2"></line>
<line x1="301" y1="1" x2="321" y2="1" stroke="#000000" stroke-linecap="round" stroke-width="2"></line>
<line x1="301" y1="81" x2="321" y2="81" stroke="#000000" stroke-linecap="round" stroke-width="2"></line>
<line x1="301" y1="201" x2="321" y2="201" stroke="#000000" stroke-linecap="round" stroke-width="2"></line>
<line x1="301" y1="281" x2="321" y2="281" stroke="#000000" stroke-linecap="round" stroke-width="2"></line>
<line x1="321" y1="1" x2="341" y2="1" stroke="#000000" stroke-linecap="round" stroke-width="2"></line>
<line x1="321" y1="41" x2="341" y2="41" stroke="#000000" stroke-linecap="round" stroke-width="2"></line>
<line x1="321" y1="81" x2="341" y2="81" stroke="#000000" stroke-linecap="round" stroke-width="2"></line>
<line x1="321" y1="281" x2="341" y2="281" stroke="#000000" stroke-linecap="round" stroke-width="2"></line>
<line x1="341" y1="1" x2="361" y2="1" stroke="#000000" stroke-linecap="round" stroke-width="2"></line>
<line x1="341" y1="41" x2="361" y2="41" stroke="#000000" stroke-linecap="round" stroke-width="2"></line>
<line x1="341" y1="81" x2="361" y2="81" stroke="#000000" stroke-linecap="round" stroke-width="2"></line>
<line x1="341" y1="201" x2="361" y2="201" stroke="#000000" stroke-linecap="round" stroke-width="2"></line>
<line x1="361" y1="1" x2="381" y2="1" stroke="#000000" stroke-linecap="round" stroke-width="2"></line>
<line x1="361" y1="41" x2="381" y2="41" stroke="#000000" stroke-linecap="round" stroke-width="2"></line>
<line x1="361" y1="121" x2="381" y2="121" stroke="#000000" stroke-linecap="round" stroke-width="2"></line>
<line x1="361" y1="281" x2="381" y2="281" stroke="#000000" stroke-linecap="round" stroke-width="2"></line>
<line x1="381" y1="1" x2="401" y2="1" stroke="#000000" stroke-linecap="round" stroke-width="2"></line>
<line x1="11" y1="101" x2="31" y2="101" stroke="#000000" stroke-linecap="round" stroke-width="2"></line>
<line x1="11" y1="301" x2="31" y2="301" stroke="#000000" stroke-linecap="round" stroke-width="2"></line>
<line x1="31" y1="221" x2="51" y2="221" stroke="#000000" stroke-linecap="round" stroke-width="2"></line>
<line x1="31" y1="301" x2="51" y2="301" stroke="#000000" stroke-linecap="round" stroke-width="2"></line>
<line x1="51" y1="141" x2="71" y2="141" stroke="#000000" stroke-linecap="round" stroke-width="2"></line>
<line x1="51" y1="301" x2="71" y2="301" stroke="#000000" stroke-linecap="round" stroke-width="2"></line>
<line x1="71" y1="141" x2="91" y2="141" stroke="#000000" stroke-linecap="round" stroke-width="2"></line>
<line x1="71" y1="181" x2="91" y2="181" stroke="#000000" stroke-linecap="round" stroke-width="2"></line>
<line x1="71" y1="261" x2="91" y2="261" stroke="#000000" stroke-linecap="round" stroke-width="2"></line>
<line x1="71" y1="301" x2="91" y2="301" stroke="#000000" stroke-linecap="round" stroke-width="2"></line>
<line x1="91" y1="21" x2="111" y2="21" stroke="#000000" stroke-linecap="round" stroke-width="2"></line>
<line x1="91" y1="141" x2="111" y2="141" stroke="#000000" stroke-linecap="round" stroke-width="2"></line>
<line x1="91" y1="261" x2="111" y2="261" stroke="#000000" stroke-linecap="round" stroke-width="2"></line>
<line x1="91" y1="301" x2="111" y2="301" stroke="#000000" stroke-linecap="round" stroke-width="2"></line>
<line x1="111" y1="61" x2="131" y2="61" stroke="#000000" stroke-linecap="round" stroke-width="2"></line>
<line x1="111" y1="301" x2="131" y2="301" stroke="#000000" stroke-linecap="round" stroke-width="2"></line>
<line x1="131" y1="21" x2="151" y2="21" stroke="#000000" stroke-linecap="round" stroke-width="2"></line>
<line x1="131" y1="61" x2="151" y2="61" stroke="#000000" stroke-linecap="round" stroke-width="2"></line>
<line x1="131" y1="141" x2="151" y2="141" stroke="#000000" stroke-linecap="round" stroke-width="2"></line>
<line x1="131" y1="181" x2="151" y2="181" stroke="#000000" stroke-linecap="round" stroke-width="2"></line>
<line x1="131" y1="261" x2="151" y2="261" stroke="#000000" stroke-linecap="round" stroke-width="2"></line>
<line x1="131" y1="301" x2="151" y2="301" stroke="#000000" stroke-linecap="round" stroke-width="2"></line>
<line x1="151" y1="61" x2="171" y2="61" stroke="#000000" stroke-linecap="round" stroke-width="2"></line>
<line x1="151" y1="101" x2="171" y2="101" stroke="#000000" stroke-linecap="round" stroke-width="2"></line>
<line x1="151" y1="221" x2="171" y2="221" stroke="#000000" stroke-linecap="round" stroke-width="2"></line>
<line x1="151" y1="261" x2="171" y2="261" stroke="#000000" stroke-linecap="round" stroke-width="2"></line>
<line x1="151" y1="301" x2="171" y2="301" stroke="#000000" stroke-linecap="round" stroke-width="2"></line>
<line x1="171" y1="21" x2="191" y2="21" stroke="#000000" stroke-linecap="round" stroke-width="2"></line>
<line x1="171" y1="61" x2="191" y2="61" stroke="#000000" stroke-linecap="round" stroke-width="2"></line>
<line x1="171" y1="221" x2="191" y2="221" stroke="#000000" stroke-linecap="round" stroke-width="2"></line>
<line x1="171" y1="301" x2="191" y2="301" stroke="#000000" stroke-linecap="round" stroke-width="2"></line>
<line x1="191" y1="21" x2="211" y2="21" stroke="#000000" stroke-linecap="round" stroke-width="2"></line>
<line x1="191" y1="181" x2="211" y2="181" stroke="#000000" stroke-linecap="round" stroke-width="2"></line>
<line x1="191" y1="221" x2="211" y2="221" stroke="#000000" stroke-linecap="round" stroke-width="2"></line>
<line x1="191" y1="301" x2="211" y2="301" stroke="#000000" stroke-linecap="round" stroke-width="2"></line>
<line x1="211" y1="61" x2="231" y2="61" stroke="#000000" stroke-linecap="round" stroke-width="2"></line>
<line x1="211" y1="301" x2="231" y2="301" stroke="#000000" stroke-linecap="round" stroke-width="2"></line>
<line x1="231" y1="61" x2="251" y2="61" stroke="#000000" stroke-linecap="round" stroke-width="2"></line>
<line x1="231" y1="141" x2="251" y2="141" stroke="#000000" stroke-linecap="round" stroke-width="2"></line>
<line x1="231" y1="301" x2="251" y2="301" stroke="#000000" stroke-linecap="round" stroke-width="2"></line>
<line x1="251" y1="61" x2="271" y2="61" stroke="#000000" stroke-linecap="round" stroke-width="2"></line>
<line x1="251" y1="101" x2="271" y2="101" stroke="#000000" stroke-linecap="round" stroke-width="2"></line>
<line x1="251" y1="261" x2="271" y2="261" stroke="#000000" stroke-linecap="round" stroke-width="2"></line>
<line x1="251" y1="301" x2="271" y2="301" stroke="#000000" stroke-linecap="round" stroke-width="2"></line>
<line x1="271" y1="21" x2="291" y2="21" stroke="#000000" stroke-linecap="round" stroke-width="2"></line>
<line x1="271" y1="301" x2="291" y2="301" stroke="#000000" stroke-linecap="round" stroke-width="2"></line>
<line x1="291" y1="21" x2="311" y2="21" stroke="#000000" stroke-linecap="round" stroke-width="2"></line>
<line x1="291" y1="261" x2="311" y2="261" stroke="#000000" stroke-linecap="round" stroke-width="2"></line>
<line x1="291" y1="301" x2="311" y2="301" stroke="#000000" stroke-linecap="round" stroke-width="2"></line>
<line x1="311" y1="21" x2="331" y2="21" stroke="#000000" stroke-linecap="round" stroke-width="2"></line>
<line x1="311" y1="61" x2="331" y2="61" stroke="#000000" stroke-linecap="round" stroke-width="2"></line>
<line x1="311" y1="181" x2="331" y2="181" stroke="#000000" stroke-linecap="round" stroke-width="2"></line>
<line x1="311" y1="221" x2="331" y2="221" stroke="#000000" stroke-linecap="round" stroke-width="2"></line>
<line x1="311" y1="261" x2="331" y2="261" stroke="#000000" stroke-linecap="round" stroke-width="2"></line>
<line x1="311" y1="301" x2="331" y2="301" stroke="#000000" stroke-linecap="round" stroke-width="2"></line>
<line x1="331" y1="21" x2="351" y2="21" stroke="#000000" stroke-linecap="round" stroke-width="2"></line>
<line x1="331" y1="61" x2="351" y2="61" stroke="#000000" stroke-linecap="round" stroke-width="2"></line>
<line x1="331" y1="101" x2="351" y2="101" stroke="#000000" stroke-linecap="round" stroke-width="2"></line>
<line x1="331" y1="261" x2="351" y2="261" stroke="#000000" stroke-linecap="round" stroke-width="2"></line>
<line x1="331" y1="301" x2="351" y2="301" stroke="#000000" stroke-linecap="round" stroke-width="2"></line>
<line x1="351" y1="61" x2="371" y2="61" stroke="#000000" stroke-linecap="round" stroke-width="2"></line>
<line x1="351" y1="101" x2="371" y2="101" stroke="#000000" stroke-linecap="round" stroke-width="2"></line>
<line x1="351" y1="181" x2="371" y2="181" stroke="#000000" stroke-linecap="round" stroke-width="2"></line>
<line x1="351" y1="301" x2="371" y2="301" stroke="#000000" stroke-linecap="round" stroke-width="2"></line>
<line x1="371" y1="141" x2="391" y2="141" stroke="#000000" stroke-linecap="round" stroke-width="2"></line>
<line x1="371" y1="261" x2="391" y2="261" stroke="#000000" stroke-linecap="round" stroke-width="2"></line>
<line x1="1" y1="1" x2="11" y2="21" stroke="#000000" stroke-linecap="round" stroke-width="2"></line>
<line x1="11" y1="21" x2="1" y2="41" stroke="#000000" stroke-linecap="round" stroke-width="2"></line>
<line x1="1" y1="41" x2="11" y2="61" stroke="#000000" stroke-linecap="round" stroke-width="2"></line>
<line x1="11" y1="61" x2="1" y2="81" stroke="#000000" stroke-linecap="round" stroke-width="2"></line>
<line x1="1" y1="81" x2="11" y2="101" stroke="#000000" stroke-linecap="round" stroke-width="2"></line>
<line x1="11" y1="101" x2="1" y2="121" stroke="#000000" stroke-linecap="round" stroke-width="2"></line>
<line x1="1" y1="121" x2="11" y2="141" stroke="#000000" stroke-linecap="round" stroke-width="2"></line>
<line x1="11" y1="141" x2="1" y2="161" stroke="#000000" stroke-linecap="round" stroke-width="2"></line>
<line x1="1" y1="161" x2="11" y2="181" stroke="#000000" stroke-linecap="round" stroke-width="2"></line>
<line x1="11" y1="181" x2="1" y2="201" stroke="#000000" stroke-linecap="round" stroke-width="2"></line>
<line x1="21" y1="161" x2="11" y2="181" stroke="#000000" stroke-linecap="round" stroke-width="2"></line>
<line x1="1" y1="201" x2="11" y2="221" stroke="#000000" stroke-linecap="round" stroke-width="2"></line>
<line x1="11" y1="221" x2="1" y2="241" stroke="#000000" stroke-linecap="round" stroke-width="2"></line>
<line x1="1" y1="241" x2="11" y2="261" stroke="#000000" stroke-linecap="round" stroke-width="2"></line>
<line x1="11" y1="261" x2="1" y2="281" stroke="#000000" stroke-linecap="round" stroke-width="2"></line>
<line x1="21" y1="241" x2="11" y2="261" stroke="#000000" stroke-linecap="round" stroke-width="2"></line>
<line x1="1" y1="281" x2="11" y2="301" stroke="#000000" stroke-linecap="round" stroke-width="2"></line>
<line x1="21" y1="1" x2="31" y2="21" stroke="#000000" stroke-linecap="round" stroke-width="2"></line>
<line x1="31" y1="21" x2="21" y2="41" stroke="#000000" stroke-linecap="round" stroke-width="2"></line>
<line x1="21" y1="41" x2="31" y2="61" stroke="#000000" stroke-linecap="round" stroke-width="2"></line>
<line x1="31" y1="61" x2="21" y2="81" stroke="#000000" stroke-linecap="round" stroke-width="2"></line>
<line x1="41" y1="41" x2="31" y2="61" stroke="#000000" stroke-linecap="round" stroke-width="2"></line>
<line x1="41" y1="81" x2="31" y2="101" stroke="#000000" stroke-linecap="round" stroke-width="2"></line>
<line x1="31" y1="101" x2="41" y2="121" stroke="#000000" stroke-linecap="round" stroke-width="2"></line>
<line x1="21" y1="121" x2="31" y2="141" stroke="#000000" stroke-linecap="round" stroke-width="2"></line>
<line x1="31" y1="141" x2="41" y2="161" stroke="#000000" stroke-linecap="round" stroke-width="2"></line>
<line x1="41" y1="161" x2="31" y2="181" stroke="#000000" stroke-linecap="round" stroke-width="2"></line>
<line x1="31" y1="221" x2="21" y2="241" stroke="#000000" stroke-linecap="round" stroke-width="2"></line>
<line x1="41" y1="241" x2="31" y2="261" stroke="#000000" stroke-linecap="round" stroke-width="2"></line>
<line x1="31" y1="261" x2="41" y2="281" stroke="#000000" stroke-linecap="round" stroke-width="2"></line>
<line x1="21" y1="281" x2="31" y2="301" stroke="#000000" stroke-linecap="round" stroke-width="2"></line>
<line x1="51" y1="21" x2="61" y2="41" stroke="#000000" stroke-linecap="round" stroke-width="2"></line>
<line x1="51" y1="61" x2="41" y2="81" stroke="#000000" stroke-linecap="round" stroke-width="2"></line>
<line x1="61" y1="41" x2="51" y2="61" stroke="#000000" stroke-linecap="round" stroke-width="2"></line>
<line x1="51" y1="61" x2="61" y2="81" stroke="#000000" stroke-linecap="round" stroke-width="2"></line>
<line x1="51" y1="101" x2="61" y2="121" stroke="#000000" stroke-linecap="round" stroke-width="2"></line>
<line x1="51" y1="141" x2="41" y2="161" stroke="#000000" stroke-linecap="round" stroke-width="2"></line>
<line x1="51" y1="181" x2="41" y2="201" stroke="#000000" stroke-linecap="round" stroke-width="2"></line>
<line x1="61" y1="161" x2="51" y2="181" stroke="#000000" stroke-linecap="round" stroke-width="2"></line>
<line x1="51" y1="181" x2="61" y2="201" stroke="#000000" stroke-linecap="round" stroke-width="2"></line>
<line x1="51" y1="221" x2="61" y2="241" stroke="#000000" stroke-linecap="round" stroke-width="2"></line>
<line x1="41" y1="241" x2="51" y2="261" stroke="#000000" stroke-linecap="round" stroke-width="2"></line>
<line x1="61" y1="1" x2="71" y2="21" stroke="#000000" stroke-linecap="round" stroke-width="2"></line>
<line x1="71" y1="21" x2="81" y2="41" stroke="#000000" stroke-linecap="round" stroke-width="2"></line>
<line x1="81" y1="41" x2="71" y2="61" stroke="#000000" stroke-linecap="round" stroke-width="2"></line>
<line x1="71" y1="61" x2="81" y2="81" stroke="#000000" stroke-linecap="round" stroke-width="2"></line>
<line x1="61" y1="81" x2="71" y2="101" stroke="#000000" stroke-linecap="round" stroke-width="2"></line>
<line x1="71" y1="101" x2="81" y2="121" stroke="#000000" stroke-linecap="round" stroke-width="2"></line>
<line x1="81" y1="201" x2="71" y2="221" stroke="#000000" stroke-linecap="round" stroke-width="2"></line>
<line x1="71" y1="221" x2="81" y2="241" stroke="#000000" stroke-linecap="round" stroke-width="2"></line>
<line x1="71" y1="261" x2="61" y2="281" stroke="#000000" stroke-linecap="round" stroke-width="2"></line>
<line x1="91" y1="21" x2="101" y2="41" stroke="#000000" stroke-linecap="round" stroke-width="2"></line>
<line x1="101" y1="41" x2="91" y2="61" stroke="#000000" stroke-linecap="round" stroke-width="2"></line>
<line x1="81" y1="81" x2="91" y2="101" stroke="#000000" stroke-linecap="round" stroke-width="2"></line>
<line x1="101" y1="81" x2="91" y2="101" stroke="#000000" stroke-linecap="round" stroke-width="2"></line>
<line x1="91" y1="101" x2="101" y2="121" stroke="#000000" stroke-linecap="round" stroke-width="2"></line>
<line x1="81" y1="121" x2="91" y2="141" stroke="#000000" stroke-linecap="round" stroke-width="2"></line>
<line x1="91" y1="181" x2="101" y2="201" stroke="#000000" stroke-linecap="round" stroke-width="2"></line>
<line x1="101" y1="201" x2="91" y2="221" stroke="#000000" stroke-linecap="round" stroke-width="2"></line>
<line x1="91" y1="221" x2="101" y2="241" stroke="#000000" stroke-linecap="round" stroke-width="2"></line>
<line x1="101" y1="241" x2="91" y2="261" stroke="#000000" stroke-linecap="round" stroke-width="2"></line>
<line x1="111" y1="21" x2="121" y2="41" stroke="#000000" stroke-linecap="round" stroke-width="2"></line>
<line x1="111" y1="61" x2="101" y2="81" stroke="#000000" stroke-linecap="round" stroke-width="2"></line>
<line x1="121" y1="81" x2="111" y2="101" stroke="#000000" stroke-linecap="round" stroke-width="2"></line>
<line x1="111" y1="101" x2="121" y2="121" stroke="#000000" stroke-linecap="round" stroke-width="2"></line>
<line x1="121" y1="121" x2="111" y2="141" stroke="#000000" stroke-linecap="round" stroke-width="2"></line>
<line x1="101" y1="161" x2="111" y2="181" stroke="#000000" stroke-linecap="round" stroke-width="2"></line>
<line x1="111" y1="181" x2="121" y2="201" stroke="#000000" stroke-linecap="round" stroke-width="2"></line>
<line x1="101" y1="201" x2="111" y2="221" stroke="#000000" stroke-linecap="round" stroke-width="2"></line>
<line x1="111" y1="261" x2="121" y2="281" stroke="#000000" stroke-linecap="round" stroke-width="2"></line>
<line x1="101" y1="281" x2="111" y2="301" stroke="#000000" stroke-linecap="round" stroke-width="2"></line>
<line x1="131" y1="61" x2="141" y2="81" stroke="#000000" stroke-linecap="round" stroke-width="2"></line>
<line x1="121" y1="81" x2="131" y2="101" stroke="#000000" stroke-linecap="round" stroke-width="2"></line>
<line x1="121" y1="121" x2="131" y2="141" stroke="#000000" stroke-linecap="round" stroke-width="2"></line>
<line x1="131" y1="181" x2="121" y2="201" stroke="#000000" stroke-linecap="round" stroke-width="2"></line>
<line x1="131" y1="221" x2="121" y2="241" stroke="#000000" stroke-linecap="round" stroke-width="2"></line>
<line x1="141" y1="201" x2="131" y2="221" stroke="#000000" stroke-linecap="round" stroke-width="2"></line>
<line x1="131" y1="221" x2="141" y2="241" stroke="#000000" stroke-linecap="round" stroke-width="2"></line>
<line x1="131" y1="261" x2="121" y2="281" stroke="#000000" stroke-linecap="round" stroke-width="2"></line>
<line x1="161" y1="1" x2="151" y2="21" stroke="#000000" stroke-linecap="round" stroke-width="2"></line>
<line x1="141" y1="81" x2="151" y2="101" stroke="#000000" stroke-linecap="round" stroke-width="2"></line>
<line x1="151" y1="101" x2="141" y2="121" stroke="#000000" stroke-linecap="round" stroke-width="2"></line>
<line x1="161" y1="121" x2="151" y2="141" stroke="#000000" stroke-linecap="round" stroke-width="2"></line>
<line x1="141" y1="161" x2="151" y2="181" stroke="#000000" stroke-linecap="round" stroke-width="2"></line>
<line x1="151" y1="221" x2="161" y2="241" stroke="#000000" stroke-linecap="round" stroke-width="2"></line>
<line x1="141" y1="241" x2="151" y2="261" stroke="#000000" stroke-linecap="round" stroke-width="2"></line>
<line x1="171" y1="21" x2="161" y2="41" stroke="#000000" stroke-linecap="round" stroke-width="2"></line>
<line x1="171" y1="101" x2="181" y2="121" stroke="#000000" stroke-linecap="round" stroke-width="2"></line>
<line x1="161" y1="121" x2="171" y2="141" stroke="#000000" stroke-linecap="round" stroke-width="2"></line>
<line x1="171" y1="141" x2="161" y2="161" stroke="#000000" stroke-linecap="round" stroke-width="2"></line>
<line x1="161" y1="161" x2="171" y2="181" stroke="#000000" stroke-linecap="round" stroke-width="2"></line>
<line x1="171" y1="181" x2="181" y2="201" stroke="#000000" stroke-linecap="round" stroke-width="2"></line>
<line x1="201" y1="41" x2="191" y2="61" stroke="#000000" stroke-linecap="round" stroke-width="2"></line>
<line x1="181" y1="81" x2="191" y2="101" stroke="#000000" stroke-linecap="round" stroke-width="2"></line>
<line x1="191" y1="101" x2="201" y2="121" stroke="#000000" stroke-linecap="round" stroke-width="2"></line>
<line x1="181" y1="121" x2="191" y2="141" stroke="#000000" stroke-linecap="round" stroke-width="2"></line>
<line x1="191" y1="141" x2="181" y2="161" stroke="#000000" stroke-linecap="round" stroke-width="2"></line>
<line x1="181" y1="161" x2="191" y2="181" stroke="#000000" stroke-linecap="round" stroke-width="2"></line>
<line x1="181" y1="241" x2="191" y2="261" stroke="#000000" stroke-linecap="round" stroke-width="2"></line>
<line x1="191" y1="261" x2="181" y2="281" stroke="#000000" stroke-linecap="round" stroke-width="2"></line>
<line x1="201" y1="241" x2="191" y2="261" stroke="#000000" stroke-linecap="round" stroke-width="2"></line>
<line x1="201" y1="281" x2="191" y2="301" stroke="#000000" stroke-linecap="round" stroke-width="2"></line>
<line x1="211" y1="21" x2="221" y2="41" stroke="#000000" stroke-linecap="round" stroke-width="2"></line>
<line x1="201" y1="41" x2="211" y2="61" stroke="#000000" stroke-linecap="round" stroke-width="2"></line>
<line x1="211" y1="101" x2="221" y2="121" stroke="#000000" stroke-linecap="round" stroke-width="2"></line>
<line x1="201" y1="121" x2="211" y2="141" stroke="#000000" stroke-linecap="round" stroke-width="2"></line>
<line x1="211" y1="141" x2="201" y2="161" stroke="#000000" stroke-linecap="round" stroke-width="2"></line>
<line x1="221" y1="121" x2="211" y2="141" stroke="#000000" stroke-linecap="round" stroke-width="2"></line>
<line x1="211" y1="181" x2="221" y2="201" stroke="#000000" stroke-linecap="round" stroke-width="2"></line>
<line x1="221" y1="201" x2="211" y2="221" stroke="#000000" stroke-linecap="round" stroke-width="2"></line>
<line x1="211" y1="261" x2="201" y2="281" stroke="#000000" stroke-linecap="round" stroke-width="2"></line>
<line x1="241" y1="1" x2="231" y2="21" stroke="#000000" stroke-linecap="round" stroke-width="2"></line>
<line x1="241" y1="81" x2="231" y2="101" stroke="#000000" stroke-linecap="round" stroke-width="2"></line>
<line x1="231" y1="141" x2="221" y2="161" stroke="#000000" stroke-linecap="round" stroke-width="2"></line>
<line x1="221" y1="161" x2="231" y2="181" stroke="#000000" stroke-linecap="round" stroke-width="2"></line>
<line x1="241" y1="161" x2="231" y2="181" stroke="#000000" stroke-linecap="round" stroke-width="2"></line>
<line x1="231" y1="181" x2="241" y2="201" stroke="#000000" stroke-linecap="round" stroke-width="2"></line>
<line x1="221" y1="201" x2="231" y2="221" stroke="#000000" stroke-linecap="round" stroke-width="2"></line>
<line x1="221" y1="241" x2="231" y2="261" stroke="#000000" stroke-linecap="round" stroke-width="2"></line>
<line x1="231" y1="261" x2="221" y2="281" stroke="#000000" stroke-linecap="round" stroke-width="2"></line>
<line x1="241" y1="241" x2="231" y2="261" stroke="#000000" stroke-linecap="round" stroke-width="2"></line>
<line x1="251" y1="21" x2="241" y2="41" stroke="#000000" stroke-linecap="round" stroke-width="2"></line>
<line x1="251" y1="21" x2="261" y2="41" stroke="#000000" stroke-linecap="round" stroke-width="2"></line>
<line x1="251" y1="61" x2="261" y2="81" stroke="#000000" stroke-linecap="round" stroke-width="2"></line>
<line x1="251" y1="101" x2="241" y2="121" stroke="#000000" stroke-linecap="round" stroke-width="2"></line>
<line x1="261" y1="121" x2="251" y2="141" stroke="#000000" stroke-linecap="round" stroke-width="2"></line>
<line x1="251" y1="141" x2="261" y2="161" stroke="#000000" stroke-linecap="round" stroke-width="2"></line>
<line x1="261" y1="161" x2="251" y2="181" stroke="#000000" stroke-linecap="round" stroke-width="2"></line>
<line x1="241" y1="201" x2="251" y2="221" stroke="#000000" stroke-linecap="round" stroke-width="2"></line>
<line x1="261" y1="201" x2="251" y2="221" stroke="#000000" stroke-linecap="round" stroke-width="2"></line>
<line x1="251" y1="261" x2="261" y2="281" stroke="#000000" stroke-linecap="round" stroke-width="2"></line>
<line x1="261" y1="281" x2="251" y2="301" stroke="#000000" stroke-linecap="round" stroke-width="2"></line>
<line x1="271" y1="61" x2="281" y2="81" stroke="#000000" stroke-linecap="round" stroke-width="2"></line>
<line x1="281" y1="81" x2="271" y2="101" stroke="#000000" stroke-linecap="round" stroke-width="2"></line>
<line x1="271" y1="141" x2="281" y2="161" stroke="#000000" stroke-linecap="round" stroke-width="2"></line>
<line x1="281" y1="161" x2="271" y2="181" stroke="#000000" stroke-linecap="round" stroke-width="2"></line>
<line x1="271" y1="221" x2="261" y2="241" stroke="#000000" stroke-linecap="round" stroke-width="2"></line>
<line x1="271" y1="261" x2="281" y2="281" stroke="#000000" stroke-linecap="round" stroke-width="2"></line>
<line x1="291" y1="21" x2="301" y2="41" stroke="#000000" stroke-linecap="round" stroke-width="2"></line>
<line x1="281" y1="41" x2="291" y2="61" stroke="#000000" stroke-linecap="round" stroke-width="2"></line>
<line x1="291" y1="61" x2="301" y2="81" stroke="#000000" stroke-linecap="round" stroke-width="2"></line>
<line x1="291" y1="101" x2="281" y2="121" stroke="#000000" stroke-linecap="round" stroke-width="2"></line>
<line x1="301" y1="81" x2="291" y2="101" stroke="#000000" stroke-linecap="round" stroke-width="2"></line>
<line x1="281" y1="121" x2="291" y2="141" stroke="#000000" stroke-linecap="round" stroke-width="2"></line>
<line x1="301" y1="161" x2="291" y2="181" stroke="#000000" stroke-linecap="round" stroke-width="2"></line>
<line x1="291" y1="181" x2="301" y2="201" stroke="#000000" stroke-linecap="round" stroke-width="2"></line>
<line x1="281" y1="201" x2="291" y2="221" stroke="#000000" stroke-linecap="round" stroke-width="2"></line>
<line x1="291" y1="221" x2="301" y2="241" stroke="#000000" stroke-linecap="round" stroke-width="2"></line>
<line x1="281" y1="241" x2="291" y2="261" stroke="#000000" stroke-linecap="round" stroke-width="2"></line>
<line x1="301" y1="41" x2="311" y2="61" stroke="#000000" stroke-linecap="round" stroke-width="2"></line>
<line x1="321" y1="81" x2="311" y2="101" stroke="#000000" stroke-linecap="round" stroke-width="2"></line>
<line x1="311" y1="101" x2="321" y2="121" stroke="#000000" stroke-linecap="round" stroke-width="2"></line>
<line x1="301" y1="121" x2="311" y2="141" stroke="#000000" stroke-linecap="round" stroke-width="2"></line>
<line x1="311" y1="141" x2="301" y2="161" stroke="#000000" stroke-linecap="round" stroke-width="2"></line>
<line x1="321" y1="161" x2="311" y2="181" stroke="#000000" stroke-linecap="round" stroke-width="2"></line>
<line x1="311" y1="221" x2="301" y2="241" stroke="#000000" stroke-linecap="round" stroke-width="2"></line>
<line x1="321" y1="241" x2="311" y2="261" stroke="#000000" stroke-linecap="round" stroke-width="2"></line>
<line x1="331" y1="101" x2="341" y2="121" stroke="#000000" stroke-linecap="round" stroke-width="2"></line>
<line x1="321" y1="121" x2="331" y2="141" stroke="#000000" stroke-linecap="round" stroke-width="2"></line>
<line x1="331" y1="141" x2="341" y2="161" stroke="#000000" stroke-linecap="round" stroke-width="2"></line>
<line x1="331" y1="181" x2="341" y2="201" stroke="#000000" stroke-linecap="round" stroke-width="2"></line>
<line x1="321" y1="201" x2="331" y2="221" stroke="#000000" stroke-linecap="round" stroke-width="2"></line>
<line x1="331" y1="221" x2="341" y2="241" stroke="#000000" stroke-linecap="round" stroke-width="2"></line>
<line x1="351" y1="21" x2="361" y2="41" stroke="#000000" stroke-linecap="round" stroke-width="2"></line>
<line x1="341" y1="121" x2="351" y2="141" stroke="#000000" stroke-linecap="round" stroke-width="2"></line>
<line x1="351" y1="141" x2="361" y2="161" stroke="#000000" stroke-linecap="round" stroke-width="2"></line>
<line x1="341" y1="161" x2="351" y2="181" stroke="#000000" stroke-linecap="round" stroke-width="2"></line>
<line x1="351" y1="221" x2="341" y2="241" stroke="#000000" stroke-linecap="round" stroke-width="2"></line>
<line x1="361" y1="241" x2="351" y2="261" stroke="#000000" stroke-linecap="round" stroke-width="2"></line>
<line x1="351" y1="261" x2="361" y2="281" stroke="#000000" stroke-linecap="round" stroke-width="2"></line>
<line x1="361" y1="1" x2="371" y2="21" stroke="#000000" stroke-linecap="round" stroke-width="2"></line>
<line x1="371" y1="61" x2="381" y2="81" stroke="#000000" stroke-linecap="round" stroke-width="2"></line>
<line x1="381" y1="81" x2="371" y2="101" stroke="#000000" stroke-linecap="round" stroke-width="2"></line>
<line x1="371" y1="141" x2="361" y2="161" stroke="#000000" stroke-linecap="round" stroke-width="2"></line>
<line x1="371" y1="181" x2="361" y2="201" stroke="#000000" stroke-linecap="round" stroke-width="2"></line>
<line x1="381" y1="161" x2="371" y2="181" stroke="#000000" stroke-linecap="round" stroke-width="2"></line>
<line x1="361" y1="201" x2="371" y2="221" stroke="#000000" stroke-linecap="round" stroke-width="2"></line>
<line x1="371" y1="221" x2="361" y2="241" stroke="#000000" stroke-linecap="round" stroke-width="2"></line>
<line x1="381" y1="241" x2="371" y2="261" stroke="#000000" stroke-linecap="round" stroke-width="2"></line>
<line x1="401" y1="1" x2="391" y2="21" stroke="#000000" stroke-linecap="round" stroke-width="2"></line>
<line x1="391" y1="21" x2="401" y2="41" stroke="#000000" stroke-linecap="round" stroke-width="2"></line>
<line x1="401" y1="41" x2="391" y2="61" stroke="#000000" stroke-linecap="round" stroke-width="2"></line>
<line x1="391" y1="61" x2="401" y2="81" stroke="#000000" stroke-linecap="round" stroke-width="2"></line>
<line x1="391" y1="101" x2="381" y2="121" stroke="#000000" stroke-linecap="round" stroke-width="2"></line>
<line x1="401" y1="81" x2="391" y2="101" stroke="#000000" stroke-linecap="round" stroke-width="2"></line>
<line x1="391" y1="101" x2="401" y2="121" stroke="#000000" stroke-linecap="round" stroke-width="2"></line>
<line x1="401" y1="121" x2="391" y2="141" stroke="#000000" stroke-linecap="round" stroke-width="2"></line>
<line x1="391" y1="141" x2="401" y2="161" stroke="#000000" stroke-linecap="round" stroke-width="2"></line>
<line x1="401" y1="161" x2="391" y2="181" stroke="#000000" stroke-linecap="round" stroke-width="2"></line>
<line x1="391" y1="181" x2="401" y2="201" stroke="#000000" stroke-linecap="round" stroke-width="2"></line>
<line x1="381" y1="201" x2="391" y2="221" stroke="#000000" stroke-linecap="round" stroke-width="2"></line>
<line x1="401" y1="201" x2="391" y2="221" stroke="#000000" stroke-linecap="round" stroke-width="2"></line>
<line x1="391" y1="221" x2="401" y2="241" stroke="#000000" stroke-linecap="round" stroke-width="2"></line>
<line x1="401" y1="241" x2="391" y2="261" stroke="#000000" stroke-linecap="round" stroke-width="2"></line>
<line x1="391" y1="261" x2="401" y2="281" stroke="#000000" stroke-linecap="round" stroke-width="2"></line>
<line x1="401" y1="281" x2="391" y2="301" stroke="#000000" stroke-linecap="round" stroke-width="2"></line>
</svg>