<?xml version="1.0" standalone="no" ?>
<!DOCTYPE svg PUBLIC "-//W3C//DTD SVG 1.1//EN" "http://www.w3.org/Graphics/SVG/1.1/DTD/svg11.dtd">
<svg version="1.1" width="414px" height="298px" xmlns="http://www.w3.org/2000/svg">
<line x1="2.7525512860841097" y1="22.071067811865476" x2="7.928932188134524" y2="41.389584337646845" stroke="#000000" stroke-linecap="round" stroke-width="2"></line>
<line x1="7.928932188134524" y1="41.389584337646845" x2="2.7525512860841097" y2="60.70810086342821" stroke="#000000" stroke-linecap="round" stroke-width="2"></line>
<line x1="2.7525512860841097" y1="60.70810086342821" x2="7.928932188134524" y2="80.02661738920958" stroke="#000000" stroke-linecap="round" stroke-width="2"></line>
<line x1="7.928932188134524" y1="80.02661738920958" x2="2.7525512860841097" y2="99.34513391499094" stroke="#000000" stroke-linecap="round" stroke-width="2"></line>
<line x1="2.7525512860841097" y1="99.34513391499094" x2="7.928932188134524" y2="118.6636504407723" stroke="#000000" stroke-linecap="round" stroke-width="2"></line>
<line x1="7.928932188134524" y1="118.6636504407723" x2="2.7525512860841097" y2="137.98216696655368" stroke="#000000" stroke-linecap="round" stroke-width="2"></line>
<line x1="2.7525512860841097" y1="137.98216696655368" x2="7.928932188134524" y2="157.30068349233503" stroke="#000000" stroke-linecap="round" stroke-width="2"></line>
<line x1="7.928932188134524" y1="157.30068349233503" x2="2.7525512860841097" y2="176.61920001811637" stroke="#000000" stroke-linecap="round" stroke-width="2"></line>
<line x1="2.7525512860841097" y1="176.61920001811637" x2="7.928932188134524" y2="195.93771654389775" stroke="#000000" stroke-linecap="round" stroke-width="2"></line>
<line x1="7.928932188134524" y1="195.93771654389775" x2="2.7525512860841097" y2="215.25623306967913" stroke="#000000" stroke-linecap="round" stroke-width="2"></line>
<line x1="2.7525512860841097" y1="215.25623306967913" x2="7.928932188134524" y2="234.5747495954605" stroke="#000000" stroke-linecap="round" stroke-width="2"></line>
<line x1="7.928932188134524" y1="234.5747495954605" x2="2.7525512860841097" y2="253.89326612124188" stroke="#000000" stroke-linecap="round" stroke-width="2"></line>
<line x1="2.7525512860841097" y1="253.89326612124188" x2="7.928932188134524" y2="273.2117826470232" stroke="#000000" stroke-linecap="round" stroke-width="2"></line>
<line x1="7.928932188134524" y1="273.2117826470232" x2="2.7525512860841097" y2="292.5302991728046" stroke="#000000" stroke-linecap="round" stroke-width="2"></line>
<line x1="7.928932188134524" y1="2.7525512860841097" x2="27.24744871391589" y2="7.928932188134524" stroke="#000000" stroke-linecap="round" stroke-width="2"></line>
<line x1="2.7525512860841097" y1="22.071067811865476" x2="22.071067811865476" y2="27.24744871391589" stroke="#000000" stroke-linecap="round" stroke-width="2"></line>
<line x1="22.071067811865476" y1="27.24744871391589" x2="27.24744871391589" y2="46.565965239697256" stroke="#000000" stroke-linecap="round" stroke-width="2"></line>
<line x1="27.24744871391589" y1="85.20299829126" x2="22.071067811865476" y2="104.52151481704135" stroke="#000000" stroke-linecap="round" stroke-width="2"></line>
<line x1="22.071067811865476" y1="104.52151481704135" x2="27.24744871391589" y2="123.84003134282273" stroke="#000000" stroke-linecap="round" stroke-width="2"></line>
<line x1="27.24744871391589" y1="123.84003134282273" x2="22.071067811865476" y2="143.1585478686041" stroke="#000000" stroke-linecap="round" stroke-width="2"></line>
<line x1="22.071067811865476" y1="143.1585478686041" x2="27.24744871391589" y2="162.47706439438545" stroke="#000000" stroke-linecap="round" stroke-width="2"></line>
<line x1="27.24744871391589" y1="162.47706439438545" x2="22.071067811865476" y2="181.7955809201668" stroke="#000000" stroke-linecap="round" stroke-width="2"></line>
<line x1="7.928932188134524" y1="195.93771654389775" x2="27.24744871391589" y2="201.1140974459482" stroke="#000000" stroke-linecap="round" stroke-width="2"></line>
<line x1="27.24744871391589" y1="239.75113049751093" x2="22.071067811865476" y2="259.0696470232923" stroke="#000000" stroke-linecap="round" stroke-width="2"></line>
<line x1="22.071067811865476" y1="259.0696470232923" x2="27.24744871391589" y2="278.3881635490736" stroke="#000000" stroke-linecap="round" stroke-width="2"></line>
<line x1="2.7525512860841097" y1="292.5302991728046" x2="22.071067811865476" y2="297.706680074855" stroke="#000000" stroke-linecap="round" stroke-width="2"></line>
<line x1="27.24744871391589" y1="7.928932188134524" x2="46.565965239697256" y2="2.7525512860841097" stroke="#000000" stroke-linecap="round" stroke-width="2"></line>
<line x1="41.389584337646845" y1="22.071067811865476" x2="27.24744871391589" y2="7.928932188134524" stroke="#000000" stroke-linecap="round" stroke-width="2"></line>
<line x1="27.24744871391589" y1="46.565965239697256" x2="46.565965239697256" y2="41.389584337646845" stroke="#000000" stroke-linecap="round" stroke-width="2"></line>
<line x1="46.565965239697256" y1="41.389584337646845" x2="41.389584337646845" y2="60.70810086342821" stroke="#000000" stroke-linecap="round" stroke-width="2"></line>
<line x1="22.071067811865476" y1="65.88448176547863" x2="41.389584337646845" y2="60.70810086342821" stroke="#000000" stroke-linecap="round" stroke-width="2"></line>
<line x1="27.24744871391589" y1="85.20299829126" x2="46.565965239697256" y2="80.02661738920958" stroke="#000000" stroke-linecap="round" stroke-width="2"></line>
<line x1="22.071067811865476" y1="104.52151481704135" x2="41.389584337646845" y2="99.34513391499094" stroke="#000000" stroke-linecap="round" stroke-width="2"></line>
<line x1="46.565965239697256" y1="118.6636504407723" x2="41.389584337646845" y2="137.98216696655368" stroke="#000000" stroke-linecap="round" stroke-width="2"></line>
<line x1="27.24744871391589" y1="162.47706439438545" x2="46.565965239697256" y2="157.30068349233503" stroke="#000000" stroke-linecap="round" stroke-width="2"></line>
<line x1="41.389584337646845" y1="176.61920001811637" x2="46.565965239697256" y2="195.93771654389775" stroke="#000000" stroke-linecap="round" stroke-width="2"></line>
<line x1="27.24744871391589" y1="201.1140974459482" x2="46.565965239697256" y2="195.93771654389775" stroke="#000000" stroke-linecap="round" stroke-width="2"></line>
<line x1="46.565965239697256" y1="195.93771654389775" x2="41.389584337646845" y2="215.25623306967913" stroke="#000000" stroke-linecap="round" stroke-width="2"></line>
<line x1="22.071067811865476" y1="220.43261397172955" x2="41.389584337646845" y2="215.25623306967913" stroke="#000000" stroke-linecap="round" stroke-width="2"></line>
<line x1="27.24744871391589" y1="239.75113049751093" x2="46.565965239697256" y2="234.5747495954605" stroke="#000000" stroke-linecap="round" stroke-width="2"></line>
<line x1="27.24744871391589" y1="278.3881635490736" x2="46.565965239697256" y2="273.2117826470232" stroke="#000000" stroke-linecap="round" stroke-width="2"></line>
<line x1="22.071067811865476" y1="297.706680074855" x2="41.389584337646845" y2="292.5302991728046" stroke="#000000" stroke-linecap="round" stroke-width="2"></line>
<line x1="46.565965239697256" y1="2.7525512860841097" x2="65.88448176547863" y2="7.928932188134524" stroke="#000000" stroke-linecap="round" stroke-width="2"></line>
<line x1="41.389584337646845" y1="22.071067811865476" x2="60.70810086342821" y2="27.24744871391589" stroke="#000000" stroke-linecap="round" stroke-width="2"></line>
<line x1="60.70810086342821" y1="27.24744871391589" x2="65.88448176547863" y2="46.565965239697256" stroke="#000000" stroke-linecap="round" stroke-width="2"></line>
<line x1="41.389584337646845" y1="60.70810086342821" x2="60.70810086342821" y2="65.88448176547863" stroke="#000000" stroke-linecap="round" stroke-width="2"></line>
<line x1="46.565965239697256" y1="80.02661738920958" x2="65.88448176547863" y2="85.20299829126" stroke="#000000" stroke-linecap="round" stroke-width="2"></line>
<line x1="41.389584337646845" y1="99.34513391499094" x2="60.70810086342821" y2="104.52151481704135" stroke="#000000" stroke-linecap="round" stroke-width="2"></line>
<line x1="46.565965239697256" y1="118.6636504407723" x2="65.88448176547863" y2="123.84003134282273" stroke="#000000" stroke-linecap="round" stroke-width="2"></line>
<line x1="41.389584337646845" y1="137.98216696655368" x2="60.70810086342821" y2="143.1585478686041" stroke="#000000" stroke-linecap="round" stroke-width="2"></line>
<line x1="60.70810086342821" y1="143.1585478686041" x2="65.88448176547863" y2="162.47706439438545" stroke="#000000" stroke-linecap="round" stroke-width="2"></line>
<line x1="65.88448176547863" y1="162.47706439438545" x2="60.70810086342821" y2="181.7955809201668" stroke="#000000" stroke-linecap="round" stroke-width="2"></line>
<line x1="41.389584337646845" y1="176.61920001811637" x2="60.70810086342821" y2="181.7955809201668" stroke="#000000" stroke-linecap="round" stroke-width="2"></line>
<line x1="41.389584337646845" y1="215.25623306967913" x2="60.70810086342821" y2="220.43261397172955" stroke="#000000" stroke-linecap="round" stroke-width="2"></line>
<line x1="60.70810086342821" y1="220.43261397172955" x2="65.88448176547863" y2="239.75113049751093" stroke="#000000" stroke-linecap="round" stroke-width="2"></line>
<line x1="65.88448176547863" y1="239.75113049751093" x2="60.70810086342821" y2="259.0696470232923" stroke="#000000" stroke-linecap="round" stroke-width="2"></line>
<line x1="41.389584337646845" y1="253.89326612124188" x2="60.70810086342821" y2="259.0696470232923" stroke="#000000" stroke-linecap="round" stroke-width="2"></line>
<line x1="46.565965239697256" y1="273.2117826470232" x2="65.88448176547863" y2="278.3881635490736" stroke="#000000" stroke-linecap="round" stroke-width="2"></line>
<line x1="41.389584337646845" y1="292.5302991728046" x2="60.70810086342821" y2="297.706680074855" stroke="#000000" stroke-linecap="round" stroke-width="2"></line>
<line x1="65.88448176547863" y1="7.928932188134524" x2="85.20299829126" y2="2.7525512860841097" stroke="#000000" stroke-linecap="round" stroke-width="2"></line>
<line x1="65.88448176547863" y1="46.565965239697256" x2="85.20299829126" y2="41.389584337646845" stroke="#000000" stroke-linecap="round" stroke-width="2"></line>
<line x1="80.02661738920958" y1="60.70810086342821" x2="65.88448176547863" y2="46.565965239697256" stroke="#000000" stroke-linecap="round" stroke-width="2"></line>
<line x1="80.02661738920958" y1="60.70810086342821" x2="85.20299829126" y2="80.02661738920958" stroke="#000000" stroke-linecap="round" stroke-width="2"></line>
<line x1="65.88448176547863" y1="85.20299829126" x2="85.20299829126" y2="80.02661738920958" stroke="#000000" stroke-linecap="round" stroke-width="2"></line>
<line x1="60.70810086342821" y1="104.52151481704135" x2="80.02661738920958" y2="99.34513391499094" stroke="#000000" stroke-linecap="round" stroke-width="2"></line>
<line x1="80.02661738920958" y1="99.34513391499094" x2="85.20299829126" y2="118.6636504407723" stroke="#000000" stroke-linecap="round" stroke-width="2"></line>
<line x1="80.02661738920958" y1="137.98216696655368" x2="65.88448176547863" y2="123.84003134282273" stroke="#000000" stroke-linecap="round" stroke-width="2"></line>
<line x1="80.02661738920958" y1="176.61920001811637" x2="85.20299829126" y2="195.93771654389775" stroke="#000000" stroke-linecap="round" stroke-width="2"></line>
<line x1="65.88448176547863" y1="201.1140974459482" x2="85.20299829126" y2="195.93771654389775" stroke="#000000" stroke-linecap="round" stroke-width="2"></line>
<line x1="80.02661738920958" y1="215.25623306967913" x2="65.88448176547863" y2="201.1140974459482" stroke="#000000" stroke-linecap="round" stroke-width="2"></line>
<line x1="65.88448176547863" y1="239.75113049751093" x2="85.20299829126" y2="234.5747495954605" stroke="#000000" stroke-linecap="round" stroke-width="2"></line>
<line x1="80.02661738920958" y1="253.89326612124188" x2="85.20299829126" y2="273.2117826470232" stroke="#000000" stroke-linecap="round" stroke-width="2"></line>
<line x1="65.88448176547863" y1="278.3881635490736" x2="85.20299829126" y2="273.2117826470232" stroke="#000000" stroke-linecap="round" stroke-width="2"></line>
<line x1="85.20299829126" y1="273.2117826470232" x2="80.02661738920958" y2="292.5302991728046" stroke="#000000" stroke-linecap="round" stroke-width="2"></line>
<line x1="60.70810086342821" y1="297.706680074855" x2="80.02661738920958" y2="292.5302991728046" stroke="#000000" stroke-linecap="round" stroke-width="2"></line>
<line x1="85.20299829126" y1="2.7525512860841097" x2="104.52151481704135" y2="7.928932188134524" stroke="#000000" stroke-linecap="round" stroke-width="2"></line>
<line x1="80.02661738920958" y1="22.071067811865476" x2="99.34513391499094" y2="27.24744871391589" stroke="#000000" stroke-linecap="round" stroke-width="2"></line>
<line x1="85.20299829126" y1="41.389584337646845" x2="104.52151481704135" y2="46.565965239697256" stroke="#000000" stroke-linecap="round" stroke-width="2"></line>
<line x1="104.52151481704135" y1="46.565965239697256" x2="99.34513391499094" y2="65.88448176547863" stroke="#000000" stroke-linecap="round" stroke-width="2"></line>
<line x1="99.34513391499094" y1="65.88448176547863" x2="104.52151481704135" y2="85.20299829126" stroke="#000000" stroke-linecap="round" stroke-width="2"></line>
<line x1="99.34513391499094" y1="104.52151481704135" x2="85.20299829126" y2="118.6636504407723" stroke="#000000" stroke-linecap="round" stroke-width="2"></line>
<line x1="104.52151481704135" y1="123.84003134282273" x2="99.34513391499094" y2="143.1585478686041" stroke="#000000" stroke-linecap="round" stroke-width="2"></line>
<line x1="80.02661738920958" y1="137.98216696655368" x2="99.34513391499094" y2="143.1585478686041" stroke="#000000" stroke-linecap="round" stroke-width="2"></line>
<line x1="99.34513391499094" y1="143.1585478686041" x2="104.52151481704135" y2="162.47706439438545" stroke="#000000" stroke-linecap="round" stroke-width="2"></line>
<line x1="85.20299829126" y1="157.30068349233503" x2="104.52151481704135" y2="162.47706439438545" stroke="#000000" stroke-linecap="round" stroke-width="2"></line>
<line x1="80.02661738920958" y1="176.61920001811637" x2="99.34513391499094" y2="181.7955809201668" stroke="#000000" stroke-linecap="round" stroke-width="2"></line>
<line x1="99.34513391499094" y1="181.7955809201668" x2="104.52151481704135" y2="201.1140974459482" stroke="#000000" stroke-linecap="round" stroke-width="2"></line>
<line x1="80.02661738920958" y1="215.25623306967913" x2="99.34513391499094" y2="220.43261397172955" stroke="#000000" stroke-linecap="round" stroke-width="2"></line>
<line x1="85.20299829126" y1="234.5747495954605" x2="104.52151481704135" y2="239.75113049751093" stroke="#000000" stroke-linecap="round" stroke-width="2"></line>
<line x1="99.34513391499094" y1="259.0696470232923" x2="104.52151481704135" y2="278.3881635490736" stroke="#000000" stroke-linecap="round" stroke-width="2"></line>
<line x1="80.02661738920958" y1="292.5302991728046" x2="99.34513391499094" y2="297.706680074855" stroke="#000000" stroke-linecap="round" stroke-width="2"></line>
<line x1="104.52151481704135" y1="7.928932188134524" x2="123.84003134282273" y2="2.7525512860841097" stroke="#000000" stroke-linecap="round" stroke-width="2"></line>
<line x1="99.34513391499094" y1="27.24744871391589" x2="118.6636504407723" y2="22.071067811865476" stroke="#000000" stroke-linecap="round" stroke-width="2"></line>
<line x1="118.6636504407723" y1="22.071067811865476" x2="123.84003134282273" y2="41.389584337646845" stroke="#000000" stroke-linecap="round" stroke-width="2"></line>
<line x1="123.84003134282273" y1="41.389584337646845" x2="118.6636504407723" y2="60.70810086342821" stroke="#000000" stroke-linecap="round" stroke-width="2"></line>
<line x1="104.52151481704135" y1="85.20299829126" x2="123.84003134282273" y2="80.02661738920958" stroke="#000000" stroke-linecap="round" stroke-width="2"></line>
<line x1="99.34513391499094" y1="104.52151481704135" x2="118.6636504407723" y2="99.34513391499094" stroke="#000000" stroke-linecap="round" stroke-width="2"></line>
<line x1="104.52151481704135" y1="123.84003134282273" x2="123.84003134282273" y2="118.6636504407723" stroke="#000000" stroke-linecap="round" stroke-width="2"></line>
<line x1="123.84003134282273" y1="118.6636504407723" x2="118.6636504407723" y2="137.98216696655368" stroke="#000000" stroke-linecap="round" stroke-width="2"></line>
<line x1="123.84003134282273" y1="157.30068349233503" x2="118.6636504407723" y2="176.61920001811637" stroke="#000000" stroke-linecap="round" stroke-width="2"></line>
<line x1="99.34513391499094" y1="181.7955809201668" x2="118.6636504407723" y2="176.61920001811637" stroke="#000000" stroke-linecap="round" stroke-width="2"></line>
<line x1="123.84003134282273" y1="195.93771654389775" x2="118.6636504407723" y2="215.25623306967913" stroke="#000000" stroke-linecap="round" stroke-width="2"></line>
<line x1="99.34513391499094" y1="220.43261397172955" x2="118.6636504407723" y2="215.25623306967913" stroke="#000000" stroke-linecap="round" stroke-width="2"></line>
<line x1="104.52151481704135" y1="239.75113049751093" x2="123.84003134282273" y2="234.5747495954605" stroke="#000000" stroke-linecap="round" stroke-width="2"></line>
<line x1="118.6636504407723" y1="253.89326612124188" x2="104.52151481704135" y2="239.75113049751093" stroke="#000000" stroke-linecap="round" stroke-width="2"></line>
<line x1="104.52151481704135" y1="278.3881635490736" x2="123.84003134282273" y2="273.2117826470232" stroke="#000000" stroke-linecap="round" stroke-width="2"></line>
<line x1="99.34513391499094" y1="297.706680074855" x2="118.6636504407723" y2="292.5302991728046" stroke="#000000" stroke-linecap="round" stroke-width="2"></line>
<line x1="123.84003134282273" y1="2.7525512860841097" x2="143.1585478686041" y2="7.928932188134524" stroke="#000000" stroke-linecap="round" stroke-width="2"></line>
<line x1="137.98216696655368" y1="27.24744871391589" x2="143.1585478686041" y2="46.565965239697256" stroke="#000000" stroke-linecap="round" stroke-width="2"></line>
<line x1="118.6636504407723" y1="60.70810086342821" x2="137.98216696655368" y2="65.88448176547863" stroke="#000000" stroke-linecap="round" stroke-width="2"></line>
<line x1="137.98216696655368" y1="65.88448176547863" x2="143.1585478686041" y2="85.20299829126" stroke="#000000" stroke-linecap="round" stroke-width="2"></line>
<line x1="118.6636504407723" y1="99.34513391499094" x2="137.98216696655368" y2="104.52151481704135" stroke="#000000" stroke-linecap="round" stroke-width="2"></line>
<line x1="137.98216696655368" y1="104.52151481704135" x2="143.1585478686041" y2="123.84003134282273" stroke="#000000" stroke-linecap="round" stroke-width="2"></line>
<line x1="143.1585478686041" y1="123.84003134282273" x2="137.98216696655368" y2="143.1585478686041" stroke="#000000" stroke-linecap="round" stroke-width="2"></line>
<line x1="137.98216696655368" y1="143.1585478686041" x2="123.84003134282273" y2="157.30068349233503" stroke="#000000" stroke-linecap="round" stroke-width="2"></line>
<line x1="143.1585478686041" y1="162.47706439438545" x2="137.98216696655368" y2="181.7955809201668" stroke="#000000" stroke-linecap="round" stroke-width="2"></line>
<line x1="137.98216696655368" y1="181.7955809201668" x2="143.1585478686041" y2="201.1140974459482" stroke="#000000" stroke-linecap="round" stroke-width="2"></line>
<line x1="118.6636504407723" y1="215.25623306967913" x2="137.98216696655368" y2="220.43261397172955" stroke="#000000" stroke-linecap="round" stroke-width="2"></line>
<line x1="123.84003134282273" y1="234.5747495954605" x2="143.1585478686041" y2="239.75113049751093" stroke="#000000" stroke-linecap="round" stroke-width="2"></line>
<line x1="137.98216696655368" y1="259.0696470232923" x2="143.1585478686041" y2="278.3881635490736" stroke="#000000" stroke-linecap="round" stroke-width="2"></line>
<line x1="123.84003134282273" y1="273.2117826470232" x2="143.1585478686041" y2="278.3881635490736" stroke="#000000" stroke-linecap="round" stroke-width="2"></line>
<line x1="118.6636504407723" y1="292.5302991728046" x2="137.98216696655368" y2="297.706680074855" stroke="#000000" stroke-linecap="round" stroke-width="2"></line>
<line x1="143.1585478686041" y1="7.928932188134524" x2="162.47706439438545" y2="2.7525512860841097" stroke="#000000" stroke-linecap="round" stroke-width="2"></line>
<line x1="162.47706439438545" y1="2.7525512860841097" x2="157.30068349233503" y2="22.071067811865476" stroke="#000000" stroke-linecap="round" stroke-width="2"></line>
<line x1="137.98216696655368" y1="27.24744871391589" x2="157.30068349233503" y2="22.071067811865476" stroke="#000000" stroke-linecap="round" stroke-width="2"></line>
<line x1="162.47706439438545" y1="41.389584337646845" x2="157.30068349233503" y2="60.70810086342821" stroke="#000000" stroke-linecap="round" stroke-width="2"></line>
<line x1="137.98216696655368" y1="65.88448176547863" x2="157.30068349233503" y2="60.70810086342821" stroke="#000000" stroke-linecap="round" stroke-width="2"></line>
<line x1="137.98216696655368" y1="104.52151481704135" x2="157.30068349233503" y2="99.34513391499094" stroke="#000000" stroke-linecap="round" stroke-width="2"></line>
<line x1="157.30068349233503" y1="99.34513391499094" x2="143.1585478686041" y2="85.20299829126" stroke="#000000" stroke-linecap="round" stroke-width="2"></line>
<line x1="162.47706439438545" y1="118.6636504407723" x2="157.30068349233503" y2="137.98216696655368" stroke="#000000" stroke-linecap="round" stroke-width="2"></line>
<line x1="157.30068349233503" y1="137.98216696655368" x2="162.47706439438545" y2="157.30068349233503" stroke="#000000" stroke-linecap="round" stroke-width="2"></line>
<line x1="143.1585478686041" y1="162.47706439438545" x2="162.47706439438545" y2="157.30068349233503" stroke="#000000" stroke-linecap="round" stroke-width="2"></line>
<line x1="162.47706439438545" y1="157.30068349233503" x2="157.30068349233503" y2="176.61920001811637" stroke="#000000" stroke-linecap="round" stroke-width="2"></line>
<line x1="143.1585478686041" y1="201.1140974459482" x2="162.47706439438545" y2="195.93771654389775" stroke="#000000" stroke-linecap="round" stroke-width="2"></line>
<line x1="137.98216696655368" y1="220.43261397172955" x2="157.30068349233503" y2="215.25623306967913" stroke="#000000" stroke-linecap="round" stroke-width="2"></line>
<line x1="157.30068349233503" y1="215.25623306967913" x2="162.47706439438545" y2="234.5747495954605" stroke="#000000" stroke-linecap="round" stroke-width="2"></line>
<line x1="137.98216696655368" y1="259.0696470232923" x2="157.30068349233503" y2="253.89326612124188" stroke="#000000" stroke-linecap="round" stroke-width="2"></line>
<line x1="157.30068349233503" y1="253.89326612124188" x2="143.1585478686041" y2="239.75113049751093" stroke="#000000" stroke-linecap="round" stroke-width="2"></line>
<line x1="137.98216696655368" y1="297.706680074855" x2="157.30068349233503" y2="292.5302991728046" stroke="#000000" stroke-linecap="round" stroke-width="2"></line>
<line x1="162.47706439438545" y1="2.7525512860841097" x2="181.7955809201668" y2="7.928932188134524" stroke="#000000" stroke-linecap="round" stroke-width="2"></line>
<line x1="176.61920001811637" y1="27.24744871391589" x2="162.47706439438545" y2="41.389584337646845" stroke="#000000" stroke-linecap="round" stroke-width="2"></line>
<line x1="181.7955809201668" y1="46.565965239697256" x2="176.61920001811637" y2="65.88448176547863" stroke="#000000" stroke-linecap="round" stroke-width="2"></line>
<line x1="162.47706439438545" y1="80.02661738920958" x2="181.7955809201668" y2="85.20299829126" stroke="#000000" stroke-linecap="round" stroke-width="2"></line>
<line x1="176.61920001811637" y1="65.88448176547863" x2="162.47706439438545" y2="80.02661738920958" stroke="#000000" stroke-linecap="round" stroke-width="2"></line>
<line x1="181.7955809201668" y1="85.20299829126" x2="176.61920001811637" y2="104.52151481704135" stroke="#000000" stroke-linecap="round" stroke-width="2"></line>
<line x1="162.47706439438545" y1="118.6636504407723" x2="181.7955809201668" y2="123.84003134282273" stroke="#000000" stroke-linecap="round" stroke-width="2"></line>
<line x1="176.61920001811637" y1="104.52151481704135" x2="162.47706439438545" y2="118.6636504407723" stroke="#000000" stroke-linecap="round" stroke-width="2"></line>
<line x1="176.61920001811637" y1="143.1585478686041" x2="181.7955809201668" y2="162.47706439438545" stroke="#000000" stroke-linecap="round" stroke-width="2"></line>
<line x1="176.61920001811637" y1="181.7955809201668" x2="162.47706439438545" y2="195.93771654389775" stroke="#000000" stroke-linecap="round" stroke-width="2"></line>
<line x1="181.7955809201668" y1="201.1140974459482" x2="176.61920001811637" y2="220.43261397172955" stroke="#000000" stroke-linecap="round" stroke-width="2"></line>
<line x1="162.47706439438545" y1="234.5747495954605" x2="181.7955809201668" y2="239.75113049751093" stroke="#000000" stroke-linecap="round" stroke-width="2"></line>
<line x1="181.7955809201668" y1="239.75113049751093" x2="176.61920001811637" y2="259.0696470232923" stroke="#000000" stroke-linecap="round" stroke-width="2"></line>
<line x1="176.61920001811637" y1="259.0696470232923" x2="162.47706439438545" y2="273.2117826470232" stroke="#000000" stroke-linecap="round" stroke-width="2"></line>
<line x1="181.7955809201668" y1="278.3881635490736" x2="176.61920001811637" y2="297.706680074855" stroke="#000000" stroke-linecap="round" stroke-width="2"></line>
<line x1="157.30068349233503" y1="292.5302991728046" x2="176.61920001811637" y2="297.706680074855" stroke="#000000" stroke-linecap="round" stroke-width="2"></line>
<line x1="181.7955809201668" y1="7.928932188134524" x2="201.1140974459482" y2="2.7525512860841097" stroke="#000000" stroke-linecap="round" stroke-width="2"></line>
<line x1="195.93771654389775" y1="22.071067811865476" x2="201.1140974459482" y2="41.389584337646845" stroke="#000000" stroke-linecap="round" stroke-width="2"></line>
<line x1="181.7955809201668" y1="46.565965239697256" x2="201.1140974459482" y2="41.389584337646845" stroke="#000000" stroke-linecap="round" stroke-width="2"></line>
<line x1="181.7955809201668" y1="85.20299829126" x2="201.1140974459482" y2="80.02661738920958" stroke="#000000" stroke-linecap="round" stroke-width="2"></line>
<line x1="195.93771654389775" y1="99.34513391499094" x2="201.1140974459482" y2="118.6636504407723" stroke="#000000" stroke-linecap="round" stroke-width="2"></line>
<line x1="201.1140974459482" y1="118.6636504407723" x2="195.93771654389775" y2="137.98216696655368" stroke="#000000" stroke-linecap="round" stroke-width="2"></line>
<line x1="176.61920001811637" y1="143.1585478686041" x2="195.93771654389775" y2="137.98216696655368" stroke="#000000" stroke-linecap="round" stroke-width="2"></line>
<line x1="181.7955809201668" y1="162.47706439438545" x2="201.1140974459482" y2="157.30068349233503" stroke="#000000" stroke-linecap="round" stroke-width="2"></line>
<line x1="176.61920001811637" y1="181.7955809201668" x2="195.93771654389775" y2="176.61920001811637" stroke="#000000" stroke-linecap="round" stroke-width="2"></line>
<line x1="195.93771654389775" y1="176.61920001811637" x2="201.1140974459482" y2="195.93771654389775" stroke="#000000" stroke-linecap="round" stroke-width="2"></line>
<line x1="195.93771654389775" y1="215.25623306967913" x2="181.7955809201668" y2="201.1140974459482" stroke="#000000" stroke-linecap="round" stroke-width="2"></line>
<line x1="181.7955809201668" y1="239.75113049751093" x2="201.1140974459482" y2="234.5747495954605" stroke="#000000" stroke-linecap="round" stroke-width="2"></line>
<line x1="195.93771654389775" y1="253.89326612124188" x2="201.1140974459482" y2="273.2117826470232" stroke="#000000" stroke-linecap="round" stroke-width="2"></line>
<line x1="181.7955809201668" y1="278.3881635490736" x2="201.1140974459482" y2="273.2117826470232" stroke="#000000" stroke-linecap="round" stroke-width="2"></line>
<line x1="176.61920001811637" y1="297.706680074855" x2="195.93771654389775" y2="292.5302991728046" stroke="#000000" stroke-linecap="round" stroke-width="2"></line>
<line x1="201.1140974459482" y1="2.7525512860841097" x2="220.43261397172955" y2="7.928932188134524" stroke="#000000" stroke-linecap="round" stroke-width="2"></line>
<line x1="220.43261397172955" y1="7.928932188134524" x2="215.25623306967913" y2="27.24744871391589" stroke="#000000" stroke-linecap="round" stroke-width="2"></line>
<line x1="201.1140974459482" y1="41.389584337646845" x2="220.43261397172955" y2="46.565965239697256" stroke="#000000" stroke-linecap="round" stroke-width="2"></line>
<line x1="195.93771654389775" y1="60.70810086342821" x2="215.25623306967913" y2="65.88448176547863" stroke="#000000" stroke-linecap="round" stroke-width="2"></line>
<line x1="215.25623306967913" y1="65.88448176547863" x2="220.43261397172955" y2="85.20299829126" stroke="#000000" stroke-linecap="round" stroke-width="2"></line>
<line x1="201.1140974459482" y1="80.02661738920958" x2="220.43261397172955" y2="85.20299829126" stroke="#000000" stroke-linecap="round" stroke-width="2"></line>
<line x1="215.25623306967913" y1="104.52151481704135" x2="220.43261397172955" y2="123.84003134282273" stroke="#000000" stroke-linecap="round" stroke-width="2"></line>
<line x1="220.43261397172955" y1="123.84003134282273" x2="215.25623306967913" y2="143.1585478686041" stroke="#000000" stroke-linecap="round" stroke-width="2"></line>
<line x1="215.25623306967913" y1="143.1585478686041" x2="220.43261397172955" y2="162.47706439438545" stroke="#000000" stroke-linecap="round" stroke-width="2"></line>
<line x1="201.1140974459482" y1="157.30068349233503" x2="220.43261397172955" y2="162.47706439438545" stroke="#000000" stroke-linecap="round" stroke-width="2"></line>
<line x1="215.25623306967913" y1="181.7955809201668" x2="220.43261397172955" y2="201.1140974459482" stroke="#000000" stroke-linecap="round" stroke-width="2"></line>
<line x1="201.1140974459482" y1="195.93771654389775" x2="220.43261397172955" y2="201.1140974459482" stroke="#000000" stroke-linecap="round" stroke-width="2"></line>
<line x1="195.93771654389775" y1="215.25623306967913" x2="215.25623306967913" y2="220.43261397172955" stroke="#000000" stroke-linecap="round" stroke-width="2"></line>
<line x1="201.1140974459482" y1="234.5747495954605" x2="220.43261397172955" y2="239.75113049751093" stroke="#000000" stroke-linecap="round" stroke-width="2"></line>
<line x1="220.43261397172955" y1="239.75113049751093" x2="215.25623306967913" y2="259.0696470232923" stroke="#000000" stroke-linecap="round" stroke-width="2"></line>
<line x1="201.1140974459482" y1="273.2117826470232" x2="220.43261397172955" y2="278.3881635490736" stroke="#000000" stroke-linecap="round" stroke-width="2"></line>
<line x1="195.93771654389775" y1="292.5302991728046" x2="215.25623306967913" y2="297.706680074855" stroke="#000000" stroke-linecap="round" stroke-width="2"></line>
<line x1="220.43261397172955" y1="7.928932188134524" x2="239.75113049751093" y2="2.7525512860841097" stroke="#000000" stroke-linecap="round" stroke-width="2"></line>
<line x1="215.25623306967913" y1="27.24744871391589" x2="234.5747495954605" y2="22.071067811865476" stroke="#000000" stroke-linecap="round" stroke-width="2"></line>
<line x1="220.43261397172955" y1="46.565965239697256" x2="239.75113049751093" y2="41.389584337646845" stroke="#000000" stroke-linecap="round" stroke-width="2"></line>
<line x1="234.5747495954605" y1="60.70810086342821" x2="239.75113049751093" y2="80.02661738920958" stroke="#000000" stroke-linecap="round" stroke-width="2"></line>
<line x1="239.75113049751093" y1="80.02661738920958" x2="234.5747495954605" y2="99.34513391499094" stroke="#000000" stroke-linecap="round" stroke-width="2"></line>
<line x1="215.25623306967913" y1="104.52151481704135" x2="234.5747495954605" y2="99.34513391499094" stroke="#000000" stroke-linecap="round" stroke-width="2"></line>
<line x1="239.75113049751093" y1="118.6636504407723" x2="234.5747495954605" y2="137.98216696655368" stroke="#000000" stroke-linecap="round" stroke-width="2"></line>
<line x1="239.75113049751093" y1="157.30068349233503" x2="234.5747495954605" y2="176.61920001811637" stroke="#000000" stroke-linecap="round" stroke-width="2"></line>
<line x1="215.25623306967913" y1="181.7955809201668" x2="234.5747495954605" y2="176.61920001811637" stroke="#000000" stroke-linecap="round" stroke-width="2"></line>
<line x1="239.75113049751093" y1="195.93771654389775" x2="234.5747495954605" y2="215.25623306967913" stroke="#000000" stroke-linecap="round" stroke-width="2"></line>
<line x1="215.25623306967913" y1="220.43261397172955" x2="234.5747495954605" y2="215.25623306967913" stroke="#000000" stroke-linecap="round" stroke-width="2"></line>
<line x1="234.5747495954605" y1="215.25623306967913" x2="239.75113049751093" y2="234.5747495954605" stroke="#000000" stroke-linecap="round" stroke-width="2"></line>
<line x1="220.43261397172955" y1="239.75113049751093" x2="239.75113049751093" y2="234.5747495954605" stroke="#000000" stroke-linecap="round" stroke-width="2"></line>
<line x1="234.5747495954605" y1="253.89326612124188" x2="239.75113049751093" y2="273.2117826470232" stroke="#000000" stroke-linecap="round" stroke-width="2"></line>
<line x1="220.43261397172955" y1="278.3881635490736" x2="239.75113049751093" y2="273.2117826470232" stroke="#000000" stroke-linecap="round" stroke-width="2"></line>
<line x1="215.25623306967913" y1="297.706680074855" x2="234.5747495954605" y2="292.5302991728046" stroke="#000000" stroke-linecap="round" stroke-width="2"></line>
<line x1="239.75113049751093" y1="2.7525512860841097" x2="259.0696470232923" y2="7.928932188134524" stroke="#000000" stroke-linecap="round" stroke-width="2"></line>
<line x1="253.89326612124188" y1="27.24744871391589" x2="239.75113049751093" y2="41.389584337646845" stroke="#000000" stroke-linecap="round" stroke-width="2"></line>
<line x1="259.0696470232923" y1="46.565965239697256" x2="253.89326612124188" y2="65.88448176547863" stroke="#000000" stroke-linecap="round" stroke-width="2"></line>
<line x1="253.89326612124188" y1="65.88448176547863" x2="259.0696470232923" y2="85.20299829126" stroke="#000000" stroke-linecap="round" stroke-width="2"></line>
<line x1="239.75113049751093" y1="80.02661738920958" x2="259.0696470232923" y2="85.20299829126" stroke="#000000" stroke-linecap="round" stroke-width="2"></line>
<line x1="253.89326612124188" y1="104.52151481704135" x2="239.75113049751093" y2="118.6636504407723" stroke="#000000" stroke-linecap="round" stroke-width="2"></line>
<line x1="234.5747495954605" y1="137.98216696655368" x2="253.89326612124188" y2="143.1585478686041" stroke="#000000" stroke-linecap="round" stroke-width="2"></line>
<line x1="253.89326612124188" y1="143.1585478686041" x2="239.75113049751093" y2="157.30068349233503" stroke="#000000" stroke-linecap="round" stroke-width="2"></line>
<line x1="234.5747495954605" y1="176.61920001811637" x2="253.89326612124188" y2="181.7955809201668" stroke="#000000" stroke-linecap="round" stroke-width="2"></line>
<line x1="253.89326612124188" y1="181.7955809201668" x2="259.0696470232923" y2="201.1140974459482" stroke="#000000" stroke-linecap="round" stroke-width="2"></line>
<line x1="259.0696470232923" y1="201.1140974459482" x2="253.89326612124188" y2="220.43261397172955" stroke="#000000" stroke-linecap="round" stroke-width="2"></line>
<line x1="239.75113049751093" y1="234.5747495954605" x2="259.0696470232923" y2="239.75113049751093" stroke="#000000" stroke-linecap="round" stroke-width="2"></line>
<line x1="234.5747495954605" y1="253.89326612124188" x2="253.89326612124188" y2="259.0696470232923" stroke="#000000" stroke-linecap="round" stroke-width="2"></line>
<line x1="253.89326612124188" y1="259.0696470232923" x2="259.0696470232923" y2="278.3881635490736" stroke="#000000" stroke-linecap="round" stroke-width="2"></line>
<line x1="234.5747495954605" y1="292.5302991728046" x2="253.89326612124188" y2="297.706680074855" stroke="#000000" stroke-linecap="round" stroke-width="2"></line>
<line x1="259.0696470232923" y1="7.928932188134524" x2="278.3881635490736" y2="2.7525512860841097" stroke="#000000" stroke-linecap="round" stroke-width="2"></line>
<line x1="253.89326612124188" y1="27.24744871391589" x2="273.2117826470232" y2="22.071067811865476" stroke="#000000" stroke-linecap="round" stroke-width="2"></line>
<line x1="278.3881635490736" y1="41.389584337646845" x2="273.2117826470232" y2="60.70810086342821" stroke="#000000" stroke-linecap="round" stroke-width="2"></line>
<line x1="253.89326612124188" y1="65.88448176547863" x2="273.2117826470232" y2="60.70810086342821" stroke="#000000" stroke-linecap="round" stroke-width="2"></line>
<line x1="278.3881635490736" y1="80.02661738920958" x2="273.2117826470232" y2="99.34513391499094" stroke="#000000" stroke-linecap="round" stroke-width="2"></line>
<line x1="253.89326612124188" y1="104.52151481704135" x2="273.2117826470232" y2="99.34513391499094" stroke="#000000" stroke-linecap="round" stroke-width="2"></line>
<line x1="259.0696470232923" y1="123.84003134282273" x2="278.3881635490736" y2="118.6636504407723" stroke="#000000" stroke-linecap="round" stroke-width="2"></line>
<line x1="253.89326612124188" y1="143.1585478686041" x2="273.2117826470232" y2="137.98216696655368" stroke="#000000" stroke-linecap="round" stroke-width="2"></line>
<line x1="259.0696470232923" y1="162.47706439438545" x2="278.3881635490736" y2="157.30068349233503" stroke="#000000" stroke-linecap="round" stroke-width="2"></line>
<line x1="253.89326612124188" y1="181.7955809201668" x2="273.2117826470232" y2="176.61920001811637" stroke="#000000" stroke-linecap="round" stroke-width="2"></line>
<line x1="253.89326612124188" y1="220.43261397172955" x2="273.2117826470232" y2="215.25623306967913" stroke="#000000" stroke-linecap="round" stroke-width="2"></line>
<line x1="273.2117826470232" y1="215.25623306967913" x2="278.3881635490736" y2="234.5747495954605" stroke="#000000" stroke-linecap="round" stroke-width="2"></line>
<line x1="273.2117826470232" y1="253.89326612124188" x2="259.0696470232923" y2="239.75113049751093" stroke="#000000" stroke-linecap="round" stroke-width="2"></line>
<line x1="259.0696470232923" y1="278.3881635490736" x2="278.3881635490736" y2="273.2117826470232" stroke="#000000" stroke-linecap="round" stroke-width="2"></line>
<line x1="253.89326612124188" y1="297.706680074855" x2="273.2117826470232" y2="292.5302991728046" stroke="#000000" stroke-linecap="round" stroke-width="2"></line>
<line x1="278.3881635490736" y1="2.7525512860841097" x2="297.706680074855" y2="7.928932188134524" stroke="#000000" stroke-linecap="round" stroke-width="2"></line>
<line x1="273.2117826470232" y1="22.071067811865476" x2="292.5302991728046" y2="27.24744871391589" stroke="#000000" stroke-linecap="round" stroke-width="2"></line>
<line x1="292.5302991728046" y1="27.24744871391589" x2="278.3881635490736" y2="41.389584337646845" stroke="#000000" stroke-linecap="round" stroke-width="2"></line>
<line x1="273.2117826470232" y1="60.70810086342821" x2="292.5302991728046" y2="65.88448176547863" stroke="#000000" stroke-linecap="round" stroke-width="2"></line>
<line x1="292.5302991728046" y1="65.88448176547863" x2="297.706680074855" y2="85.20299829126" stroke="#000000" stroke-linecap="round" stroke-width="2"></line>
<line x1="273.2117826470232" y1="99.34513391499094" x2="292.5302991728046" y2="104.52151481704135" stroke="#000000" stroke-linecap="round" stroke-width="2"></line>
<line x1="278.3881635490736" y1="118.6636504407723" x2="297.706680074855" y2="123.84003134282273" stroke="#000000" stroke-linecap="round" stroke-width="2"></line>
<line x1="297.706680074855" y1="123.84003134282273" x2="292.5302991728046" y2="143.1585478686041" stroke="#000000" stroke-linecap="round" stroke-width="2"></line>
<line x1="278.3881635490736" y1="157.30068349233503" x2="297.706680074855" y2="162.47706439438545" stroke="#000000" stroke-linecap="round" stroke-width="2"></line>
<line x1="292.5302991728046" y1="143.1585478686041" x2="278.3881635490736" y2="157.30068349233503" stroke="#000000" stroke-linecap="round" stroke-width="2"></line>
<line x1="297.706680074855" y1="162.47706439438545" x2="292.5302991728046" y2="181.7955809201668" stroke="#000000" stroke-linecap="round" stroke-width="2"></line>
<line x1="278.3881635490736" y1="195.93771654389775" x2="297.706680074855" y2="201.1140974459482" stroke="#000000" stroke-linecap="round" stroke-width="2"></line>
<line x1="292.5302991728046" y1="181.7955809201668" x2="278.3881635490736" y2="195.93771654389775" stroke="#000000" stroke-linecap="round" stroke-width="2"></line>
<line x1="292.5302991728046" y1="220.43261397172955" x2="297.706680074855" y2="239.75113049751093" stroke="#000000" stroke-linecap="round" stroke-width="2"></line>
<line x1="278.3881635490736" y1="234.5747495954605" x2="297.706680074855" y2="239.75113049751093" stroke="#000000" stroke-linecap="round" stroke-width="2"></line>
<line x1="297.706680074855" y1="239.75113049751093" x2="292.5302991728046" y2="259.0696470232923" stroke="#000000" stroke-linecap="round" stroke-width="2"></line>
<line x1="292.5302991728046" y1="259.0696470232923" x2="278.3881635490736" y2="273.2117826470232" stroke="#000000" stroke-linecap="round" stroke-width="2"></line>
<line x1="273.2117826470232" y1="292.5302991728046" x2="292.5302991728046" y2="297.706680074855" stroke="#000000" stroke-linecap="round" stroke-width="2"></line>
<line x1="297.706680074855" y1="7.928932188134524" x2="317.0251966006364" y2="2.7525512860841097" stroke="#000000" stroke-linecap="round" stroke-width="2"></line>
<line x1="311.84881569858595" y1="22.071067811865476" x2="297.706680074855" y2="7.928932188134524" stroke="#000000" stroke-linecap="round" stroke-width="2"></line>
<line x1="311.84881569858595" y1="22.071067811865476" x2="317.0251966006364" y2="41.389584337646845" stroke="#000000" stroke-linecap="round" stroke-width="2"></line>
<line x1="297.706680074855" y1="46.565965239697256" x2="317.0251966006364" y2="41.389584337646845" stroke="#000000" stroke-linecap="round" stroke-width="2"></line>
<line x1="292.5302991728046" y1="65.88448176547863" x2="311.84881569858595" y2="60.70810086342821" stroke="#000000" stroke-linecap="round" stroke-width="2"></line>
<line x1="317.0251966006364" y1="80.02661738920958" x2="311.84881569858595" y2="99.34513391499094" stroke="#000000" stroke-linecap="round" stroke-width="2"></line>
<line x1="292.5302991728046" y1="104.52151481704135" x2="311.84881569858595" y2="99.34513391499094" stroke="#000000" stroke-linecap="round" stroke-width="2"></line>
<line x1="297.706680074855" y1="123.84003134282273" x2="317.0251966006364" y2="118.6636504407723" stroke="#000000" stroke-linecap="round" stroke-width="2"></line>
<line x1="311.84881569858595" y1="137.98216696655368" x2="317.0251966006364" y2="157.30068349233503" stroke="#000000" stroke-linecap="round" stroke-width="2"></line>
<line x1="317.0251966006364" y1="157.30068349233503" x2="311.84881569858595" y2="176.61920001811637" stroke="#000000" stroke-linecap="round" stroke-width="2"></line>
<line x1="311.84881569858595" y1="215.25623306967913" x2="297.706680074855" y2="201.1140974459482" stroke="#000000" stroke-linecap="round" stroke-width="2"></line>
<line x1="311.84881569858595" y1="215.25623306967913" x2="317.0251966006364" y2="234.5747495954605" stroke="#000000" stroke-linecap="round" stroke-width="2"></line>
<line x1="317.0251966006364" y1="234.5747495954605" x2="311.84881569858595" y2="253.89326612124188" stroke="#000000" stroke-linecap="round" stroke-width="2"></line>
<line x1="311.84881569858595" y1="253.89326612124188" x2="317.0251966006364" y2="273.2117826470232" stroke="#000000" stroke-linecap="round" stroke-width="2"></line>
<line x1="297.706680074855" y1="278.3881635490736" x2="317.0251966006364" y2="273.2117826470232" stroke="#000000" stroke-linecap="round" stroke-width="2"></line>
<line x1="292.5302991728046" y1="297.706680074855" x2="311.84881569858595" y2="292.5302991728046" stroke="#000000" stroke-linecap="round" stroke-width="2"></line>
<line x1="317.0251966006364" y1="2.7525512860841097" x2="336.3437131264177" y2="7.928932188134524" stroke="#000000" stroke-linecap="round" stroke-width="2"></line>
<line x1="317.0251966006364" y1="41.389584337646845" x2="336.3437131264177" y2="46.565965239697256" stroke="#000000" stroke-linecap="round" stroke-width="2"></line>
<line x1="311.84881569858595" y1="60.70810086342821" x2="331.16733222436727" y2="65.88448176547863" stroke="#000000" stroke-linecap="round" stroke-width="2"></line>
<line x1="317.0251966006364" y1="80.02661738920958" x2="336.3437131264177" y2="85.20299829126" stroke="#000000" stroke-linecap="round" stroke-width="2"></line>
<line x1="331.16733222436727" y1="104.52151481704135" x2="336.3437131264177" y2="123.84003134282273" stroke="#000000" stroke-linecap="round" stroke-width="2"></line>
<line x1="331.16733222436727" y1="104.52151481704135" x2="317.0251966006364" y2="118.6636504407723" stroke="#000000" stroke-linecap="round" stroke-width="2"></line>
<line x1="336.3437131264177" y1="123.84003134282273" x2="331.16733222436727" y2="143.1585478686041" stroke="#000000" stroke-linecap="round" stroke-width="2"></line>
<line x1="331.16733222436727" y1="143.1585478686041" x2="317.0251966006364" y2="157.30068349233503" stroke="#000000" stroke-linecap="round" stroke-width="2"></line>
<line x1="336.3437131264177" y1="162.47706439438545" x2="331.16733222436727" y2="181.7955809201668" stroke="#000000" stroke-linecap="round" stroke-width="2"></line>
<line x1="317.0251966006364" y1="195.93771654389775" x2="336.3437131264177" y2="201.1140974459482" stroke="#000000" stroke-linecap="round" stroke-width="2"></line>
<line x1="331.16733222436727" y1="181.7955809201668" x2="317.0251966006364" y2="195.93771654389775" stroke="#000000" stroke-linecap="round" stroke-width="2"></line>
<line x1="336.3437131264177" y1="201.1140974459482" x2="331.16733222436727" y2="220.43261397172955" stroke="#000000" stroke-linecap="round" stroke-width="2"></line>
<line x1="317.0251966006364" y1="234.5747495954605" x2="336.3437131264177" y2="239.75113049751093" stroke="#000000" stroke-linecap="round" stroke-width="2"></line>
<line x1="331.16733222436727" y1="259.0696470232923" x2="336.3437131264177" y2="278.3881635490736" stroke="#000000" stroke-linecap="round" stroke-width="2"></line>
<line x1="317.0251966006364" y1="273.2117826470232" x2="336.3437131264177" y2="278.3881635490736" stroke="#000000" stroke-linecap="round" stroke-width="2"></line>
<line x1="311.84881569858595" y1="292.5302991728046" x2="331.16733222436727" y2="297.706680074855" stroke="#000000" stroke-linecap="round" stroke-width="2"></line>
<line x1="336.3437131264177" y1="7.928932188134524" x2="355.66222965219913" y2="2.7525512860841097" stroke="#000000" stroke-linecap="round" stroke-width="2"></line>
<line x1="331.16733222436727" y1="27.24744871391589" x2="350.48584875014876" y2="22.071067811865476" stroke="#000000" stroke-linecap="round" stroke-width="2"></line>
<line x1="350.48584875014876" y1="22.071067811865476" x2="355.66222965219913" y2="41.389584337646845" stroke="#000000" stroke-linecap="round" stroke-width="2"></line>
<line x1="355.66222965219913" y1="41.389584337646845" x2="350.48584875014876" y2="60.70810086342821" stroke="#000000" stroke-linecap="round" stroke-width="2"></line>
<line x1="331.16733222436727" y1="65.88448176547863" x2="350.48584875014876" y2="60.70810086342821" stroke="#000000" stroke-linecap="round" stroke-width="2"></line>
<line x1="336.3437131264177" y1="85.20299829126" x2="355.66222965219913" y2="80.02661738920958" stroke="#000000" stroke-linecap="round" stroke-width="2"></line>
<line x1="331.16733222436727" y1="104.52151481704135" x2="350.48584875014876" y2="99.34513391499094" stroke="#000000" stroke-linecap="round" stroke-width="2"></line>
<line x1="355.66222965219913" y1="118.6636504407723" x2="350.48584875014876" y2="137.98216696655368" stroke="#000000" stroke-linecap="round" stroke-width="2"></line>
<line x1="336.3437131264177" y1="162.47706439438545" x2="355.66222965219913" y2="157.30068349233503" stroke="#000000" stroke-linecap="round" stroke-width="2"></line>
<line x1="355.66222965219913" y1="157.30068349233503" x2="350.48584875014876" y2="176.61920001811637" stroke="#000000" stroke-linecap="round" stroke-width="2"></line>
<line x1="336.3437131264177" y1="201.1140974459482" x2="355.66222965219913" y2="195.93771654389775" stroke="#000000" stroke-linecap="round" stroke-width="2"></line>
<line x1="350.48584875014876" y1="215.25623306967913" x2="355.66222965219913" y2="234.5747495954605" stroke="#000000" stroke-linecap="round" stroke-width="2"></line>
<line x1="355.66222965219913" y1="234.5747495954605" x2="350.48584875014876" y2="253.89326612124188" stroke="#000000" stroke-linecap="round" stroke-width="2"></line>
<line x1="331.16733222436727" y1="259.0696470232923" x2="350.48584875014876" y2="253.89326612124188" stroke="#000000" stroke-linecap="round" stroke-width="2"></line>
<line x1="331.16733222436727" y1="297.706680074855" x2="350.48584875014876" y2="292.5302991728046" stroke="#000000" stroke-linecap="round" stroke-width="2"></line>
<line x1="355.66222965219913" y1="2.7525512860841097" x2="374.98074617798045" y2="7.928932188134524" stroke="#000000" stroke-linecap="round" stroke-width="2"></line>
<line x1="374.98074617798045" y1="7.928932188134524" x2="369.8043652759301" y2="27.24744871391589" stroke="#000000" stroke-linecap="round" stroke-width="2"></line>
<line x1="369.8043652759301" y1="27.24744871391589" x2="374.98074617798045" y2="46.565965239697256" stroke="#000000" stroke-linecap="round" stroke-width="2"></line>
<line x1="350.48584875014876" y1="60.70810086342821" x2="369.8043652759301" y2="65.88448176547863" stroke="#000000" stroke-linecap="round" stroke-width="2"></line>
<line x1="369.8043652759301" y1="65.88448176547863" x2="374.98074617798045" y2="85.20299829126" stroke="#000000" stroke-linecap="round" stroke-width="2"></line>
<line x1="369.8043652759301" y1="104.52151481704135" x2="355.66222965219913" y2="118.6636504407723" stroke="#000000" stroke-linecap="round" stroke-width="2"></line>
<line x1="350.48584875014876" y1="137.98216696655368" x2="369.8043652759301" y2="143.1585478686041" stroke="#000000" stroke-linecap="round" stroke-width="2"></line>
<line x1="369.8043652759301" y1="143.1585478686041" x2="355.66222965219913" y2="157.30068349233503" stroke="#000000" stroke-linecap="round" stroke-width="2"></line>
<line x1="350.48584875014876" y1="176.61920001811637" x2="369.8043652759301" y2="181.7955809201668" stroke="#000000" stroke-linecap="round" stroke-width="2"></line>
<line x1="369.8043652759301" y1="181.7955809201668" x2="374.98074617798045" y2="201.1140974459482" stroke="#000000" stroke-linecap="round" stroke-width="2"></line>
<line x1="369.8043652759301" y1="220.43261397172955" x2="355.66222965219913" y2="234.5747495954605" stroke="#000000" stroke-linecap="round" stroke-width="2"></line>
<line x1="374.98074617798045" y1="239.75113049751093" x2="369.8043652759301" y2="259.0696470232923" stroke="#000000" stroke-linecap="round" stroke-width="2"></line>
<line x1="369.8043652759301" y1="259.0696470232923" x2="355.66222965219913" y2="273.2117826470232" stroke="#000000" stroke-linecap="round" stroke-width="2"></line>
<line x1="374.98074617798045" y1="278.3881635490736" x2="369.8043652759301" y2="297.706680074855" stroke="#000000" stroke-linecap="round" stroke-width="2"></line>
<line x1="350.48584875014876" y1="292.5302991728046" x2="369.8043652759301" y2="297.706680074855" stroke="#000000" stroke-linecap="round" stroke-width="2"></line>
<line x1="374.98074617798045" y1="7.928932188134524" x2="394.2992627037619" y2="2.7525512860841097" stroke="#000000" stroke-linecap="round" stroke-width="2"></line>
<line x1="394.2992627037619" y1="41.389584337646845" x2="389.12288180171146" y2="60.70810086342821" stroke="#000000" stroke-linecap="round" stroke-width="2"></line>
<line x1="389.12288180171146" y1="60.70810086342821" x2="374.98074617798045" y2="46.565965239697256" stroke="#000000" stroke-linecap="round" stroke-width="2"></line>
<line x1="374.98074617798045" y1="85.20299829126" x2="394.2992627037619" y2="80.02661738920958" stroke="#000000" stroke-linecap="round" stroke-width="2"></line>
<line x1="394.2992627037619" y1="80.02661738920958" x2="389.12288180171146" y2="99.34513391499094" stroke="#000000" stroke-linecap="round" stroke-width="2"></line>
<line x1="369.8043652759301" y1="104.52151481704135" x2="389.12288180171146" y2="99.34513391499094" stroke="#000000" stroke-linecap="round" stroke-width="2"></line>
<line x1="389.12288180171146" y1="99.34513391499094" x2="394.2992627037619" y2="118.6636504407723" stroke="#000000" stroke-linecap="round" stroke-width="2"></line>
<line x1="389.12288180171146" y1="137.98216696655368" x2="374.98074617798045" y2="123.84003134282273" stroke="#000000" stroke-linecap="round" stroke-width="2"></line>
<line x1="389.12288180171146" y1="137.98216696655368" x2="394.2992627037619" y2="157.30068349233503" stroke="#000000" stroke-linecap="round" stroke-width="2"></line>
<line x1="374.98074617798045" y1="162.47706439438545" x2="394.2992627037619" y2="157.30068349233503" stroke="#000000" stroke-linecap="round" stroke-width="2"></line>
<line x1="389.12288180171146" y1="176.61920001811637" x2="374.98074617798045" y2="162.47706439438545" stroke="#000000" stroke-linecap="round" stroke-width="2"></line>
<line x1="374.98074617798045" y1="201.1140974459482" x2="394.2992627037619" y2="195.93771654389775" stroke="#000000" stroke-linecap="round" stroke-width="2"></line>
<line x1="394.2992627037619" y1="195.93771654389775" x2="389.12288180171146" y2="215.25623306967913" stroke="#000000" stroke-linecap="round" stroke-width="2"></line>
<line x1="369.8043652759301" y1="220.43261397172955" x2="389.12288180171146" y2="215.25623306967913" stroke="#000000" stroke-linecap="round" stroke-width="2"></line>
<line x1="374.98074617798045" y1="239.75113049751093" x2="394.2992627037619" y2="234.5747495954605" stroke="#000000" stroke-linecap="round" stroke-width="2"></line>
<line x1="389.12288180171146" y1="253.89326612124188" x2="394.2992627037619" y2="273.2117826470232" stroke="#000000" stroke-linecap="round" stroke-width="2"></line>
<line x1="374.98074617798045" y1="278.3881635490736" x2="394.2992627037619" y2="273.2117826470232" stroke="#000000" stroke-linecap="round" stroke-width="2"></line>
<line x1="369.8043652759301" y1="297.706680074855" x2="389.12288180171146" y2="292.5302991728046" stroke="#000000" stroke-linecap="round" stroke-width="2"></line>
<line x1="394.2992627037619" y1="2.7525512860841097" x2="413.6177792295432" y2="7.928932188134524" stroke="#000000" stroke-linecap="round" stroke-width="2"></line>
<line x1="413.6177792295432" y1="7.928932188134524" x2="408.4413983274928" y2="27.24744871391589" stroke="#000000" stroke-linecap="round" stroke-width="2"></line>
<line x1="389.12288180171146" y1="22.071067811865476" x2="408.4413983274928" y2="27.24744871391589" stroke="#000000" stroke-linecap="round" stroke-width="2"></line>
<line x1="408.4413983274928" y1="27.24744871391589" x2="413.6177792295432" y2="46.565965239697256" stroke="#000000" stroke-linecap="round" stroke-width="2"></line>
<line x1="413.6177792295432" y1="46.565965239697256" x2="408.4413983274928" y2="65.88448176547863" stroke="#000000" stroke-linecap="round" stroke-width="2"></line>
<line x1="408.4413983274928" y1="65.88448176547863" x2="413.6177792295432" y2="85.20299829126" stroke="#000000" stroke-linecap="round" stroke-width="2"></line>
<line x1="413.6177792295432" y1="85.20299829126" x2="408.4413983274928" y2="104.52151481704135" stroke="#000000" stroke-linecap="round" stroke-width="2"></line>
<line x1="408.4413983274928" y1="104.52151481704135" x2="413.6177792295432" y2="123.84003134282273" stroke="#000000" stroke-linecap="round" stroke-width="2"></line>
<line x1="413.6177792295432" y1="123.84003134282273" x2="408.4413983274928" y2="143.1585478686041" stroke="#000000" stroke-linecap="round" stroke-width="2"></line>
<line x1="389.12288180171146" y1="137.98216696655368" x2="408.4413983274928" y2="143.1585478686041" stroke="#000000" stroke-linecap="round" stroke-width="2"></line>
<line x1="408.4413983274928" y1="143.1585478686041" x2="413.6177792295432" y2="162.47706439438545" stroke="#000000" stroke-linecap="round" stroke-width="2"></line>
<line x1="413.6177792295432" y1="162.47706439438545" x2="408.4413983274928" y2="181.7955809201668" stroke="#000000" stroke-linecap="round" stroke-width="2"></line>
<line x1="408.4413983274928" y1="181.7955809201668" x2="413.6177792295432" y2="201.1140974459482" stroke="#000000" stroke-linecap="round" stroke-width="2"></line>
<line x1="413.6177792295432" y1="201.1140974459482" x2="408.4413983274928" y2="220.43261397172955" stroke="#000000" stroke-linecap="round" stroke-width="2"></line>
<line x1="408.4413983274928" y1="220.43261397172955" x2="413.6177792295432" y2="239.75113049751093" stroke="#000000" stroke-linecap="round" stroke-width="2"></line>
<line x1="408.4413983274928" y1="220.43261397172955" x2="394.2992627037619" y2="234.5747495954605" stroke="#000000" stroke-linecap="round" stroke-width="2"></line>
<line x1="413.6177792295432" y1="239.75113049751093" x2="408.4413983274928" y2="259.0696470232923" stroke="#000000" stroke-linecap="round" stroke-width="2"></line>
<line x1="408.4413983274928" y1="259.0696470232923" x2="413.6177792295432" y2="278.3881635490736" stroke="#000000" stroke-linecap="round" stroke-width="2"></line>
<line x1="389.12288180171146" y1="292.5302991728046" x2="408.4413983274928" y2="297.706680074855" stroke="#000000" stroke-linecap="round" stroke-width="2"></line>
</svg>